# MagicaVoxel @ Ephtracy

# group
o 

# material
mtllib persoMale.mtl
usemtl palette

# normals
vn -1 0 0
vn 1 0 0
vn 0 0 1
vn 0 0 -1
vn 0 -1 0
vn 0 1 0

# texcoords
vt 0.00195313 0.5
vt 0.0332031 0.5
vt 0.0605469 0.5
vt 0.474609 0.5
vt 0.501953 0.5
vt 0.783203 0.5
vt 0.857422 0.5
vt 0.865234 0.5
vt 0.994141 0.5

# verts
v 2.4 3.9 -2.3
v 2.4 3.9 -2.4
v 2.4 4 -2.3
v 2.4 4 -2.4
v 2.4 4.1 -2.3
v 2.4 4.1 -2.4
v 2.5 2.5 -2.3
v 2.5 2.5 -2.5
v 2.5 2.9 -2.3
v 2.5 2.9 -2.5
v 2.5 3 -2.3
v 2.5 3 -2.5
v 2.5 3.3 -2.3
v 2.5 3.3 -2.5
v 2.5 3.6 -2.2
v 2.5 3.6 -2.3
v 2.5 3.6 -2.6
v 2.5 3.9 -2.3
v 2.5 3.9 -2.4
v 2.5 3.9 -2.5
v 2.5 3.9 -2.6
v 2.5 4 -2.3
v 2.5 4 -2.4
v 2.5 4.1 -2.3
v 2.5 4.1 -2.4
v 2.5 4.1 -2.5
v 2.5 4.4 -2.2
v 2.5 4.4 -2.6
v 2.6 3.3 -2.3
v 2.6 3.3 -2.5
v 2.6 3.4 -2.3
v 2.6 3.4 -2.5
v 2.6 3.5 -2.2
v 2.6 3.5 -2.3
v 2.6 3.5 -2.6
v 2.6 3.6 -2.2
v 2.6 3.6 -2.3
v 2.6 3.6 -2.6
v 2.6 4.4 -2.2
v 2.6 4.4 -2.6
v 2.6 4.5 -2.2
v 2.6 4.5 -2.6
v 2.7 2 -2.3
v 2.7 2 -2.5
v 2.7 2.1 -2.4
v 2.7 2.1 -2.5
v 2.7 2.7 -2.2
v 2.7 2.7 -2.3
v 2.7 2.7 -2.4
v 2.7 2.7 -2.6
v 2.7 3.3 -2.3
v 2.7 3.3 -2.5
v 2.7 3.4 -2.2
v 2.7 3.4 -2.3
v 2.7 3.4 -2.5
v 2.7 3.4 -2.6
v 2.7 3.5 -2.2
v 2.7 3.5 -2.3
v 2.7 3.5 -2.6
v 2.7 4.5 -2.2
v 2.7 4.5 -2.6
v 2.7 4.6 -2.2
v 2.7 4.6 -2.6
v 3 2 -2.3
v 3 2 -2.5
v 3 2.1 -2.4
v 3 2.1 -2.5
v 3 2.7 -2.3
v 3 2.7 -2.4
v 3.2 2.5 -2.3
v 3.2 2.5 -2.5
v 3.2 2.9 -2.3
v 3.2 2.9 -2.5
v 3.2 3 -2.3
v 3.2 3 -2.5
v 3.2 3.3 -2.3
v 3.2 3.3 -2.5
v 2.6 2.5 -2.3
v 2.6 2.5 -2.5
v 2.6 2.9 -2.3
v 2.6 2.9 -2.5
v 2.6 3 -2.3
v 2.6 3 -2.5
v 2.6 3.3 -2.3
v 2.6 3.3 -2.5
v 2.8 2 -2.3
v 2.8 2 -2.5
v 2.8 2.1 -2.4
v 2.8 2.1 -2.5
v 2.8 2.7 -2.3
v 2.8 2.7 -2.4
v 3.1 2 -2.3
v 3.1 2 -2.5
v 3.1 2.1 -2.4
v 3.1 2.1 -2.5
v 3.1 2.7 -2.2
v 3.1 2.7 -2.3
v 3.1 2.7 -2.4
v 3.1 2.7 -2.6
v 3.1 3.3 -2.3
v 3.1 3.3 -2.5
v 3.1 3.4 -2.2
v 3.1 3.4 -2.3
v 3.1 3.4 -2.5
v 3.1 3.4 -2.6
v 3.1 3.5 -2.2
v 3.1 3.5 -2.3
v 3.1 3.5 -2.6
v 3.1 4.5 -2.2
v 3.1 4.5 -2.6
v 3.1 4.6 -2.2
v 3.1 4.6 -2.6
v 3.2 3.3 -2.3
v 3.2 3.3 -2.5
v 3.2 3.4 -2.3
v 3.2 3.4 -2.5
v 3.2 3.5 -2.2
v 3.2 3.5 -2.3
v 3.2 3.5 -2.6
v 3.2 3.6 -2.2
v 3.2 3.6 -2.3
v 3.2 3.6 -2.6
v 3.2 4.4 -2.2
v 3.2 4.4 -2.6
v 3.2 4.5 -2.2
v 3.2 4.5 -2.6
v 3.3 2.5 -2.3
v 3.3 2.5 -2.5
v 3.3 2.9 -2.3
v 3.3 2.9 -2.5
v 3.3 3 -2.3
v 3.3 3 -2.5
v 3.3 3.3 -2.3
v 3.3 3.3 -2.5
v 3.3 3.6 -2.2
v 3.3 3.6 -2.3
v 3.3 3.6 -2.6
v 3.3 3.9 -2.3
v 3.3 3.9 -2.4
v 3.3 3.9 -2.5
v 3.3 3.9 -2.6
v 3.3 4 -2.3
v 3.3 4 -2.4
v 3.3 4.1 -2.3
v 3.3 4.1 -2.4
v 3.3 4.1 -2.5
v 3.3 4.4 -2.2
v 3.3 4.4 -2.6
v 3.4 3.9 -2.3
v 3.4 3.9 -2.4
v 3.4 4 -2.3
v 3.4 4 -2.4
v 3.4 4.1 -2.3
v 3.4 4.1 -2.4
v 2.5 3.6 -2.2
v 2.5 4.4 -2.2
v 2.6 3.5 -2.2
v 2.6 3.6 -2.2
v 2.6 4.4 -2.2
v 2.6 4.5 -2.2
v 2.7 2.7 -2.2
v 2.7 3.4 -2.2
v 2.7 3.5 -2.2
v 2.7 4.5 -2.2
v 2.7 4.6 -2.2
v 3.1 2.7 -2.2
v 3.1 3.4 -2.2
v 3.1 3.5 -2.2
v 3.1 4.5 -2.2
v 3.1 4.6 -2.2
v 3.2 3.5 -2.2
v 3.2 3.6 -2.2
v 3.2 4.4 -2.2
v 3.2 4.5 -2.2
v 3.3 3.6 -2.2
v 3.3 4.4 -2.2
v 2.4 3.9 -2.3
v 2.4 4 -2.3
v 2.4 4.1 -2.3
v 2.5 2.5 -2.3
v 2.5 2.9 -2.3
v 2.5 3 -2.3
v 2.5 3.3 -2.3
v 2.5 3.9 -2.3
v 2.5 4 -2.3
v 2.5 4.1 -2.3
v 2.6 2.5 -2.3
v 2.6 2.9 -2.3
v 2.6 3 -2.3
v 2.6 3.3 -2.3
v 2.6 3.4 -2.3
v 2.7 2 -2.3
v 2.7 2.7 -2.3
v 2.7 3.3 -2.3
v 2.7 3.4 -2.3
v 2.8 2 -2.3
v 2.8 2.7 -2.3
v 3 2 -2.3
v 3 2.7 -2.3
v 3.1 2 -2.3
v 3.1 2.7 -2.3
v 3.1 3.3 -2.3
v 3.1 3.4 -2.3
v 3.2 2.5 -2.3
v 3.2 2.9 -2.3
v 3.2 3 -2.3
v 3.2 3.3 -2.3
v 3.2 3.4 -2.3
v 3.3 2.5 -2.3
v 3.3 2.9 -2.3
v 3.3 3 -2.3
v 3.3 3.3 -2.3
v 3.3 3.9 -2.3
v 3.3 4 -2.3
v 3.3 4.1 -2.3
v 3.4 3.9 -2.3
v 3.4 4 -2.3
v 3.4 4.1 -2.3
v 2.4 3.9 -2.4
v 2.4 4 -2.4
v 2.4 4.1 -2.4
v 2.5 3.9 -2.4
v 2.5 4 -2.4
v 2.5 4.1 -2.4
v 2.7 2.1 -2.4
v 2.7 2.7 -2.4
v 2.8 2.1 -2.4
v 2.8 2.7 -2.4
v 3 2.1 -2.4
v 3 2.7 -2.4
v 3.1 2.1 -2.4
v 3.1 2.7 -2.4
v 3.3 3.9 -2.4
v 3.3 4 -2.4
v 3.3 4.1 -2.4
v 3.4 3.9 -2.4
v 3.4 4 -2.4
v 3.4 4.1 -2.4
v 2.5 2.5 -2.5
v 2.5 2.9 -2.5
v 2.5 3 -2.5
v 2.5 3.3 -2.5
v 2.6 2.5 -2.5
v 2.6 2.9 -2.5
v 2.6 3 -2.5
v 2.6 3.3 -2.5
v 2.6 3.4 -2.5
v 2.7 2 -2.5
v 2.7 2.1 -2.5
v 2.7 3.3 -2.5
v 2.7 3.4 -2.5
v 2.8 2 -2.5
v 2.8 2.1 -2.5
v 3 2 -2.5
v 3 2.1 -2.5
v 3.1 2 -2.5
v 3.1 2.1 -2.5
v 3.1 3.3 -2.5
v 3.1 3.4 -2.5
v 3.2 2.5 -2.5
v 3.2 2.9 -2.5
v 3.2 3 -2.5
v 3.2 3.3 -2.5
v 3.2 3.4 -2.5
v 3.3 2.5 -2.5
v 3.3 2.9 -2.5
v 3.3 3 -2.5
v 3.3 3.3 -2.5
v 2.5 3.6 -2.6
v 2.5 3.9 -2.6
v 2.5 4.4 -2.6
v 2.6 3.5 -2.6
v 2.6 3.6 -2.6
v 2.6 3.7 -2.6
v 2.6 3.8 -2.6
v 2.6 3.9 -2.6
v 2.6 4 -2.6
v 2.6 4.1 -2.6
v 2.6 4.2 -2.6
v 2.6 4.3 -2.6
v 2.6 4.4 -2.6
v 2.6 4.5 -2.6
v 2.7 2.7 -2.6
v 2.7 3.4 -2.6
v 2.7 3.5 -2.6
v 2.7 3.7 -2.6
v 2.7 3.8 -2.6
v 2.7 4 -2.6
v 2.7 4.1 -2.6
v 2.7 4.3 -2.6
v 2.7 4.4 -2.6
v 2.7 4.5 -2.6
v 2.7 4.6 -2.6
v 2.8 2.7 -2.6
v 2.8 3.4 -2.6
v 2.8 3.5 -2.6
v 2.8 3.6 -2.6
v 2.8 3.8 -2.6
v 2.8 3.9 -2.6
v 2.8 4 -2.6
v 2.8 4.1 -2.6
v 2.8 4.2 -2.6
v 2.8 4.3 -2.6
v 2.8 4.4 -2.6
v 2.8 4.5 -2.6
v 2.9 2.7 -2.6
v 2.9 3.4 -2.6
v 2.9 3.8 -2.6
v 2.9 3.9 -2.6
v 3 2.7 -2.6
v 3 3.4 -2.6
v 3 3.5 -2.6
v 3 3.6 -2.6
v 3 4 -2.6
v 3 4.1 -2.6
v 3 4.2 -2.6
v 3 4.3 -2.6
v 3.1 2.7 -2.6
v 3.1 3.4 -2.6
v 3.1 3.5 -2.6
v 3.1 3.6 -2.6
v 3.1 3.7 -2.6
v 3.1 3.8 -2.6
v 3.1 4 -2.6
v 3.1 4.1 -2.6
v 3.1 4.5 -2.6
v 3.1 4.6 -2.6
v 3.2 3.5 -2.6
v 3.2 3.6 -2.6
v 3.2 3.7 -2.6
v 3.2 3.8 -2.6
v 3.2 3.9 -2.6
v 3.2 4 -2.6
v 3.2 4.1 -2.6
v 3.2 4.2 -2.6
v 3.2 4.3 -2.6
v 3.2 4.4 -2.6
v 3.2 4.5 -2.6
v 3.3 3.6 -2.6
v 3.3 3.9 -2.6
v 3.3 4.4 -2.6
v 2.7 2 -2.3
v 2.8 2 -2.3
v 3 2 -2.3
v 3.1 2 -2.3
v 2.7 2 -2.5
v 2.8 2 -2.5
v 3 2 -2.5
v 3.1 2 -2.5
v 2.5 2.5 -2.3
v 2.6 2.5 -2.3
v 3.2 2.5 -2.3
v 3.3 2.5 -2.3
v 2.5 2.5 -2.5
v 2.6 2.5 -2.5
v 3.2 2.5 -2.5
v 3.3 2.5 -2.5
v 2.7 2.7 -2.2
v 3.1 2.7 -2.2
v 2.7 2.7 -2.3
v 2.8 2.7 -2.3
v 3 2.7 -2.3
v 3.1 2.7 -2.3
v 2.7 2.7 -2.4
v 2.8 2.7 -2.4
v 3 2.7 -2.4
v 3.1 2.7 -2.4
v 2.8 2.7 -2.5
v 2.9 2.7 -2.5
v 3 2.7 -2.5
v 2.7 2.7 -2.6
v 2.8 2.7 -2.6
v 2.9 2.7 -2.6
v 3 2.7 -2.6
v 3.1 2.7 -2.6
v 2.6 3.3 -2.3
v 2.7 3.3 -2.3
v 3.1 3.3 -2.3
v 3.2 3.3 -2.3
v 2.6 3.3 -2.5
v 2.7 3.3 -2.5
v 3.1 3.3 -2.5
v 3.2 3.3 -2.5
v 2.6 3.5 -2.2
v 2.7 3.5 -2.2
v 3.1 3.5 -2.2
v 3.2 3.5 -2.2
v 2.6 3.5 -2.3
v 2.7 3.5 -2.3
v 3.1 3.5 -2.3
v 3.2 3.5 -2.3
v 2.6 3.5 -2.6
v 2.7 3.5 -2.6
v 3.1 3.5 -2.6
v 3.2 3.5 -2.6
v 2.5 3.6 -2.2
v 2.6 3.6 -2.2
v 3.2 3.6 -2.2
v 3.3 3.6 -2.2
v 2.5 3.6 -2.3
v 2.6 3.6 -2.3
v 3.2 3.6 -2.3
v 3.3 3.6 -2.3
v 2.5 3.6 -2.6
v 2.6 3.6 -2.6
v 3.2 3.6 -2.6
v 3.3 3.6 -2.6
v 2.4 3.9 -2.3
v 2.5 3.9 -2.3
v 3.3 3.9 -2.3
v 3.4 3.9 -2.3
v 2.4 3.9 -2.4
v 2.5 3.9 -2.4
v 3.3 3.9 -2.4
v 3.4 3.9 -2.4
v 2.7 2.1 -2.4
v 2.8 2.1 -2.4
v 3 2.1 -2.4
v 3.1 2.1 -2.4
v 2.7 2.1 -2.5
v 2.8 2.1 -2.5
v 3 2.1 -2.5
v 3.1 2.1 -2.5
v 2.5 3.3 -2.3
v 2.6 3.3 -2.3
v 3.2 3.3 -2.3
v 3.3 3.3 -2.3
v 2.5 3.3 -2.5
v 2.6 3.3 -2.5
v 3.2 3.3 -2.5
v 3.3 3.3 -2.5
v 2.6 3.4 -2.3
v 2.7 3.4 -2.3
v 3.1 3.4 -2.3
v 3.2 3.4 -2.3
v 2.6 3.4 -2.5
v 2.7 3.4 -2.5
v 3.1 3.4 -2.5
v 3.2 3.4 -2.5
v 2.4 4.1 -2.3
v 2.5 4.1 -2.3
v 3.3 4.1 -2.3
v 3.4 4.1 -2.3
v 2.4 4.1 -2.4
v 2.5 4.1 -2.4
v 3.3 4.1 -2.4
v 3.4 4.1 -2.4
v 2.5 4.4 -2.2
v 2.6 4.4 -2.2
v 3.2 4.4 -2.2
v 3.3 4.4 -2.2
v 2.5 4.4 -2.6
v 2.6 4.4 -2.6
v 3.2 4.4 -2.6
v 3.3 4.4 -2.6
v 2.6 4.5 -2.2
v 2.7 4.5 -2.2
v 3.1 4.5 -2.2
v 3.2 4.5 -2.2
v 2.6 4.5 -2.6
v 2.7 4.5 -2.6
v 3.1 4.5 -2.6
v 3.2 4.5 -2.6
v 2.7 4.6 -2.2
v 3.1 4.6 -2.2
v 2.7 4.6 -2.6
v 3.1 4.6 -2.6

# faces
f 3/2/1 2/2/1 1/2/1
f 4/2/1 2/2/1 3/2/1
f 5/3/1 4/3/1 3/3/1
f 6/3/1 4/3/1 5/3/1
f 9/3/1 8/3/1 7/3/1
f 10/3/1 8/3/1 9/3/1
f 11/8/1 10/8/1 9/8/1
f 12/8/1 10/8/1 11/8/1
f 13/5/1 12/5/1 11/5/1
f 14/5/1 12/5/1 13/5/1
f 18/3/1 16/3/1 15/3/1
f 18/9/1 17/9/1 16/9/1
f 19/9/1 17/9/1 18/9/1
f 20/9/1 17/9/1 19/9/1
f 21/9/1 17/9/1 20/9/1
f 22/3/1 18/3/1 15/3/1
f 23/9/1 20/9/1 19/9/1
f 24/3/1 22/3/1 15/3/1
f 25/9/1 20/9/1 23/9/1
f 26/3/1 21/3/1 20/3/1
f 26/9/1 20/9/1 25/9/1
f 27/3/1 25/3/1 24/3/1
f 27/3/1 24/3/1 15/3/1
f 27/3/1 26/3/1 25/3/1
f 28/3/1 21/3/1 26/3/1
f 28/3/1 26/3/1 27/3/1
f 31/5/1 30/5/1 29/5/1
f 32/5/1 30/5/1 31/5/1
f 36/3/1 34/3/1 33/3/1
f 37/9/1 35/9/1 34/9/1
f 37/3/1 34/3/1 36/3/1
f 38/9/1 35/9/1 37/9/1
f 41/3/1 40/3/1 39/3/1
f 42/3/1 40/3/1 41/3/1
f 45/6/1 44/6/1 43/6/1
f 46/6/1 44/6/1 45/6/1
f 48/6/1 45/6/1 43/6/1
f 49/6/1 45/6/1 48/6/1
f 51/4/1 49/4/1 48/4/1
f 51/4/1 50/4/1 49/4/1
f 51/4/1 48/4/1 47/4/1
f 52/4/1 50/4/1 51/4/1
f 53/4/1 51/4/1 47/4/1
f 54/4/1 51/4/1 53/4/1
f 55/4/1 50/4/1 52/4/1
f 56/4/1 50/4/1 55/4/1
f 57/3/1 54/3/1 53/3/1
f 58/9/1 55/9/1 54/9/1
f 58/3/1 54/3/1 57/3/1
f 58/9/1 56/9/1 55/9/1
f 59/9/1 56/9/1 58/9/1
f 62/3/1 61/3/1 60/3/1
f 63/3/1 61/3/1 62/3/1
f 66/6/1 65/6/1 64/6/1
f 67/6/1 65/6/1 66/6/1
f 68/6/1 66/6/1 64/6/1
f 69/6/1 66/6/1 68/6/1
f 72/3/1 71/3/1 70/3/1
f 73/3/1 71/3/1 72/3/1
f 74/8/1 73/8/1 72/8/1
f 75/8/1 73/8/1 74/8/1
f 76/5/1 75/5/1 74/5/1
f 77/5/1 75/5/1 76/5/1
f 78/3/2 79/3/2 80/3/2
f 80/3/2 79/3/2 81/3/2
f 80/8/2 81/8/2 82/8/2
f 82/8/2 81/8/2 83/8/2
f 82/5/2 83/5/2 84/5/2
f 84/5/2 83/5/2 85/5/2
f 86/6/2 87/6/2 88/6/2
f 88/6/2 87/6/2 89/6/2
f 86/6/2 88/6/2 90/6/2
f 90/6/2 88/6/2 91/6/2
f 92/6/2 93/6/2 94/6/2
f 94/6/2 93/6/2 95/6/2
f 92/6/2 94/6/2 97/6/2
f 97/6/2 94/6/2 98/6/2
f 97/4/2 98/4/2 100/4/2
f 98/4/2 99/4/2 100/4/2
f 96/4/2 97/4/2 100/4/2
f 100/4/2 99/4/2 101/4/2
f 96/4/2 100/4/2 102/4/2
f 102/4/2 100/4/2 103/4/2
f 101/4/2 99/4/2 104/4/2
f 104/4/2 99/4/2 105/4/2
f 102/3/2 103/3/2 106/3/2
f 103/9/2 104/9/2 107/9/2
f 106/3/2 103/3/2 107/3/2
f 104/9/2 105/9/2 107/9/2
f 107/9/2 105/9/2 108/9/2
f 109/3/2 110/3/2 111/3/2
f 111/3/2 110/3/2 112/3/2
f 113/5/2 114/5/2 115/5/2
f 115/5/2 114/5/2 116/5/2
f 117/3/2 118/3/2 120/3/2
f 118/9/2 119/9/2 121/9/2
f 120/3/2 118/3/2 121/3/2
f 121/9/2 119/9/2 122/9/2
f 123/3/2 124/3/2 125/3/2
f 125/3/2 124/3/2 126/3/2
f 127/3/2 128/3/2 129/3/2
f 129/3/2 128/3/2 130/3/2
f 129/8/2 130/8/2 131/8/2
f 131/8/2 130/8/2 132/8/2
f 131/5/2 132/5/2 133/5/2
f 133/5/2 132/5/2 134/5/2
f 135/3/2 136/3/2 138/3/2
f 136/9/2 137/9/2 138/9/2
f 138/9/2 137/9/2 139/9/2
f 139/9/2 137/9/2 140/9/2
f 140/9/2 137/9/2 141/9/2
f 135/3/2 138/3/2 142/3/2
f 139/9/2 140/9/2 143/9/2
f 135/3/2 142/3/2 144/3/2
f 143/9/2 140/9/2 145/9/2
f 140/3/2 141/3/2 146/3/2
f 145/9/2 140/9/2 146/9/2
f 144/3/2 145/3/2 147/3/2
f 135/3/2 144/3/2 147/3/2
f 145/3/2 146/3/2 147/3/2
f 146/3/2 141/3/2 148/3/2
f 147/3/2 146/3/2 148/3/2
f 149/2/2 150/2/2 151/2/2
f 151/2/2 150/2/2 152/2/2
f 151/3/2 152/3/2 153/3/2
f 153/3/2 152/3/2 154/3/2
f 158/3/3 156/3/3 155/3/3
f 159/3/3 156/3/3 158/3/3
f 163/3/3 158/3/3 157/3/3
f 163/3/3 159/3/3 158/3/3
f 163/3/3 160/3/3 159/3/3
f 164/3/3 160/3/3 163/3/3
f 166/4/3 162/4/3 161/4/3
f 167/3/3 165/3/3 164/3/3
f 167/4/3 162/4/3 166/4/3
f 167/3/3 163/3/3 162/3/3
f 167/3/3 164/3/3 163/3/3
f 168/3/3 165/3/3 167/3/3
f 169/3/3 165/3/3 168/3/3
f 170/3/3 165/3/3 169/3/3
f 171/3/3 169/3/3 168/3/3
f 172/3/3 169/3/3 171/3/3
f 173/3/3 169/3/3 172/3/3
f 174/3/3 169/3/3 173/3/3
f 175/3/3 173/3/3 172/3/3
f 176/3/3 173/3/3 175/3/3
f 184/2/3 178/2/3 177/2/3
f 185/3/3 179/3/3 178/3/3
f 185/2/3 178/2/3 184/2/3
f 186/3/3 179/3/3 185/3/3
f 187/3/3 181/3/3 180/3/3
f 188/8/3 182/8/3 181/8/3
f 188/3/3 181/3/3 187/3/3
f 189/5/3 183/5/3 182/5/3
f 189/8/3 182/8/3 188/8/3
f 190/5/3 183/5/3 189/5/3
f 194/5/3 191/5/3 190/5/3
f 195/5/3 191/5/3 194/5/3
f 196/6/3 193/6/3 192/6/3
f 197/6/3 193/6/3 196/6/3
f 200/6/3 199/6/3 198/6/3
f 201/6/3 199/6/3 200/6/3
f 207/5/3 203/5/3 202/5/3
f 208/5/3 203/5/3 207/5/3
f 209/3/3 205/3/3 204/3/3
f 210/8/3 206/8/3 205/8/3
f 210/3/3 205/3/3 209/3/3
f 211/5/3 207/5/3 206/5/3
f 211/8/3 206/8/3 210/8/3
f 212/5/3 207/5/3 211/5/3
f 216/2/3 214/2/3 213/2/3
f 217/3/3 215/3/3 214/3/3
f 217/2/3 214/2/3 216/2/3
f 218/3/3 215/3/3 217/3/3
f 219/2/4 220/2/4 222/2/4
f 220/3/4 221/3/4 223/3/4
f 222/2/4 220/2/4 223/2/4
f 223/3/4 221/3/4 224/3/4
f 225/6/4 226/6/4 227/6/4
f 227/6/4 226/6/4 228/6/4
f 229/6/4 230/6/4 231/6/4
f 231/6/4 230/6/4 232/6/4
f 233/2/4 234/2/4 236/2/4
f 234/3/4 235/3/4 237/3/4
f 236/2/4 234/2/4 237/2/4
f 237/3/4 235/3/4 238/3/4
f 239/3/4 240/3/4 243/3/4
f 240/8/4 241/8/4 244/8/4
f 243/3/4 240/3/4 244/3/4
f 241/5/4 242/5/4 245/5/4
f 244/8/4 241/8/4 245/8/4
f 245/5/4 242/5/4 246/5/4
f 246/5/4 247/5/4 250/5/4
f 250/5/4 247/5/4 251/5/4
f 248/6/4 249/6/4 252/6/4
f 252/6/4 249/6/4 253/6/4
f 254/6/4 255/6/4 256/6/4
f 256/6/4 255/6/4 257/6/4
f 258/5/4 259/5/4 263/5/4
f 263/5/4 259/5/4 264/5/4
f 260/3/4 261/3/4 265/3/4
f 261/8/4 262/8/4 266/8/4
f 265/3/4 261/3/4 266/3/4
f 262/5/4 263/5/4 267/5/4
f 266/8/4 262/8/4 267/8/4
f 267/5/4 263/5/4 268/5/4
f 269/9/4 270/9/4 273/9/4
f 273/9/4 270/9/4 274/9/4
f 274/9/4 270/9/4 275/9/4
f 270/3/4 271/3/4 276/3/4
f 275/9/4 270/9/4 276/9/4
f 276/3/4 271/3/4 277/3/4
f 277/3/4 271/3/4 278/3/4
f 278/3/4 271/3/4 279/3/4
f 279/3/4 271/3/4 280/3/4
f 280/3/4 271/3/4 281/3/4
f 272/9/4 273/9/4 285/9/4
f 273/9/4 274/9/4 285/9/4
f 274/2/4 275/2/4 286/2/4
f 285/9/4 274/9/4 286/9/4
f 275/3/4 276/3/4 287/3/4
f 286/2/4 275/2/4 287/2/4
f 276/3/4 277/3/4 287/3/4
f 277/9/4 278/9/4 288/9/4
f 287/3/4 277/3/4 288/3/4
f 278/3/4 279/3/4 289/3/4
f 288/9/4 278/9/4 289/9/4
f 279/9/4 280/9/4 290/9/4
f 280/2/4 281/2/4 290/2/4
f 281/3/4 282/3/4 291/3/4
f 290/2/4 281/2/4 291/2/4
f 291/3/4 282/3/4 292/3/4
f 283/4/4 284/4/4 294/4/4
f 284/9/4 285/9/4 295/9/4
f 294/4/4 284/4/4 295/4/4
f 285/3/4 286/3/4 296/3/4
f 295/9/4 285/9/4 296/9/4
f 296/3/4 286/3/4 297/3/4
f 286/9/4 287/9/4 298/9/4
f 287/3/4 288/3/4 298/3/4
f 298/3/4 288/3/4 299/3/4
f 288/1/4 289/1/4 300/1/4
f 299/3/4 288/3/4 300/3/4
f 289/3/4 279/3/4 301/3/4
f 300/1/4 289/1/4 301/1/4
f 279/9/4 290/9/4 302/9/4
f 301/3/4 279/3/4 302/3/4
f 290/3/4 291/3/4 303/3/4
f 302/9/4 290/9/4 303/9/4
f 291/2/4 292/2/4 304/2/4
f 303/3/4 291/3/4 304/3/4
f 292/3/4 293/3/4 305/3/4
f 304/2/4 292/2/4 305/2/4
f 294/7/4 295/7/4 306/7/4
f 296/9/4 297/9/4 307/9/4
f 306/7/4 295/7/4 307/7/4
f 295/9/4 296/9/4 307/9/4
f 298/2/4 299/2/4 308/2/4
f 286/9/4 298/9/4 308/9/4
f 303/3/4 304/3/4 309/3/4
f 308/2/4 299/2/4 309/2/4
f 300/3/4 301/3/4 309/3/4
f 299/3/4 300/3/4 309/3/4
f 304/3/4 305/3/4 309/3/4
f 302/3/4 303/3/4 309/3/4
f 301/3/4 302/3/4 309/3/4
f 306/8/4 307/8/4 310/8/4
f 307/9/4 297/9/4 311/9/4
f 310/8/4 307/8/4 311/8/4
f 311/9/4 297/9/4 312/9/4
f 297/3/4 286/3/4 313/3/4
f 312/9/4 297/9/4 313/9/4
f 309/3/4 305/3/4 314/3/4
f 308/3/4 309/3/4 314/3/4
f 314/3/4 305/3/4 315/3/4
f 315/3/4 305/3/4 316/3/4
f 316/3/4 305/3/4 317/3/4
f 310/4/4 311/4/4 318/4/4
f 311/9/4 312/9/4 319/9/4
f 318/4/4 311/4/4 319/4/4
f 312/2/4 313/2/4 320/2/4
f 319/9/4 312/9/4 320/9/4
f 313/3/4 286/3/4 321/3/4
f 320/2/4 313/2/4 321/2/4
f 286/9/4 308/9/4 322/9/4
f 321/3/4 286/3/4 322/3/4
f 308/3/4 314/3/4 323/3/4
f 322/9/4 308/9/4 323/9/4
f 314/9/4 315/9/4 324/9/4
f 323/3/4 314/3/4 324/3/4
f 315/3/4 316/3/4 325/3/4
f 324/9/4 315/9/4 325/9/4
f 305/3/4 293/3/4 326/3/4
f 317/3/4 305/3/4 326/3/4
f 326/3/4 293/3/4 327/3/4
f 320/9/4 321/9/4 328/9/4
f 321/9/4 322/9/4 328/9/4
f 328/9/4 322/9/4 329/9/4
f 322/2/4 323/2/4 330/2/4
f 329/9/4 322/9/4 330/9/4
f 323/3/4 324/3/4 331/3/4
f 330/2/4 323/2/4 331/2/4
f 331/3/4 324/3/4 332/3/4
f 324/1/4 325/1/4 333/1/4
f 332/3/4 324/3/4 333/3/4
f 325/3/4 316/3/4 334/3/4
f 333/1/4 325/1/4 334/1/4
f 316/9/4 317/9/4 335/9/4
f 334/3/4 316/3/4 335/3/4
f 317/3/4 326/3/4 336/3/4
f 335/9/4 317/9/4 336/9/4
f 336/3/4 326/3/4 337/3/4
f 337/3/4 326/3/4 338/3/4
f 331/9/4 332/9/4 339/9/4
f 329/9/4 330/9/4 339/9/4
f 330/9/4 331/9/4 339/9/4
f 334/3/4 335/3/4 340/3/4
f 339/9/4 332/9/4 340/9/4
f 332/3/4 333/3/4 340/3/4
f 333/3/4 334/3/4 340/3/4
f 335/3/4 336/3/4 340/3/4
f 336/3/4 337/3/4 340/3/4
f 340/3/4 337/3/4 341/3/4
f 346/6/5 343/6/5 342/6/5
f 347/6/5 343/6/5 346/6/5
f 348/6/5 345/6/5 344/6/5
f 349/6/5 345/6/5 348/6/5
f 354/3/5 351/3/5 350/3/5
f 355/3/5 351/3/5 354/3/5
f 356/3/5 353/3/5 352/3/5
f 357/3/5 353/3/5 356/3/5
f 360/4/5 359/4/5 358/4/5
f 361/4/5 359/4/5 360/4/5
f 362/4/5 359/4/5 361/4/5
f 363/4/5 359/4/5 362/4/5
f 365/4/5 362/4/5 361/4/5
f 366/4/5 362/4/5 365/4/5
f 368/4/5 365/4/5 364/4/5
f 368/4/5 367/4/5 366/4/5
f 368/4/5 366/4/5 365/4/5
f 369/4/5 367/4/5 368/4/5
f 370/4/5 367/4/5 369/4/5
f 371/4/5 368/4/5 364/4/5
f 372/7/5 369/7/5 368/7/5
f 372/4/5 368/4/5 371/4/5
f 373/8/5 370/8/5 369/8/5
f 373/7/5 369/7/5 372/7/5
f 374/4/5 367/4/5 370/4/5
f 374/8/5 370/8/5 373/8/5
f 375/4/5 367/4/5 374/4/5
f 380/5/5 377/5/5 376/5/5
f 381/5/5 377/5/5 380/5/5
f 382/5/5 379/5/5 378/5/5
f 383/5/5 379/5/5 382/5/5
f 388/3/5 385/3/5 384/3/5
f 389/3/5 385/3/5 388/3/5
f 390/3/5 387/3/5 386/3/5
f 391/3/5 387/3/5 390/3/5
f 392/9/5 389/9/5 388/9/5
f 393/9/5 389/9/5 392/9/5
f 394/9/5 391/9/5 390/9/5
f 395/9/5 391/9/5 394/9/5
f 400/3/5 397/3/5 396/3/5
f 401/3/5 397/3/5 400/3/5
f 402/3/5 399/3/5 398/3/5
f 403/3/5 399/3/5 402/3/5
f 404/9/5 401/9/5 400/9/5
f 405/9/5 401/9/5 404/9/5
f 406/9/5 403/9/5 402/9/5
f 407/9/5 403/9/5 406/9/5
f 412/2/5 409/2/5 408/2/5
f 413/2/5 409/2/5 412/2/5
f 414/2/5 411/2/5 410/2/5
f 415/2/5 411/2/5 414/2/5
f 416/6/6 417/6/6 420/6/6
f 420/6/6 417/6/6 421/6/6
f 418/6/6 419/6/6 422/6/6
f 422/6/6 419/6/6 423/6/6
f 424/5/6 425/5/6 428/5/6
f 428/5/6 425/5/6 429/5/6
f 426/5/6 427/5/6 430/5/6
f 430/5/6 427/5/6 431/5/6
f 432/5/6 433/5/6 436/5/6
f 436/5/6 433/5/6 437/5/6
f 434/5/6 435/5/6 438/5/6
f 438/5/6 435/5/6 439/5/6
f 440/3/6 441/3/6 444/3/6
f 444/3/6 441/3/6 445/3/6
f 442/3/6 443/3/6 446/3/6
f 446/3/6 443/3/6 447/3/6
f 448/3/6 449/3/6 452/3/6
f 452/3/6 449/3/6 453/3/6
f 450/3/6 451/3/6 454/3/6
f 454/3/6 451/3/6 455/3/6
f 456/3/6 457/3/6 460/3/6
f 460/3/6 457/3/6 461/3/6
f 458/3/6 459/3/6 462/3/6
f 462/3/6 459/3/6 463/3/6
f 464/3/6 465/3/6 466/3/6
f 466/3/6 465/3/6 467/3/6
