<?xml version="1.0" encoding="utf-8"?>
<!-- Generator: Adobe Illustrator 19.2.1, SVG Export Plug-In . SVG Version: 6.00 Build 0)  -->
<svg version="1.1" id="Layer_1" xmlns="http://www.w3.org/2000/svg" xmlns:xlink="http://www.w3.org/1999/xlink" x="0px" y="0px"
	 viewBox="0 0 841.9 595.3" style="enable-background:new 0 0 841.9 595.3;" xml:space="preserve">
<style type="text/css">
	.st0{fill:none;stroke:#414141;stroke-miterlimit:10;}
	.st1{fill:#00A8D5;}
	.st2{fill:#00AEDB;}
	.st3{fill:#00B3E2;}
	.st4{fill:#00B9E9;}
	.st5{fill:#00C0F3;}
	.st6{fill:#414141;}
	.st7{fill:#F7941E;}
	.st8{fill:#0094C1;}
	.st9{fill:#0084B7;}
	.st10{fill:none;stroke:#414141;stroke-width:12;stroke-miterlimit:10;}
	.st11{fill:#00AFDE;}
	.st12{fill:#00B7E7;}
</style>
<g>
	<g>
		<g>
			<path class="st1" d="M153.7,342.9h-40.8H72.1c-7.8,0-14.2,6.3-14.2,14.2v64.1v64.1h55h55v-64.1v-64.1
				C167.9,349.3,161.5,342.9,153.7,342.9z"/>
			<path class="st2" d="M79.1,361.9c-6.1,0.3-11.1,5.4-11.2,11.7c-0.4,1-0.7,50.3-0.7,51.6c0,1.8,0.5,51.5,1.3,52.6
				c0.8,1.2,43.2,1.9,44.4,1.9s43.6-0.7,44.4-1.9c0.8-1.2,1.3-50.9,1.3-52.6c0-1.8-0.5-51.5-1.3-52.6c-0.3-6.3-5.3-11.4-11.5-11.6
				c-0.7-0.6-32-0.9-32.9-0.9C111.6,360,79.9,360.7,79.1,361.9z"/>
			<path class="st3" d="M86.2,380.8c-4.4,0.7-7.9,4.5-8.3,9.2c-0.9,2-1.4,36.5-1.4,39c0,3.6,1,38.8,2.6,41.2s31.3,3.8,33.8,3.8
				s32.2-1.4,33.8-3.8s2.6-37.6,2.6-41.2c0-3.6-1-38.8-2.6-41.2c-0.5-4.7-4.3-8.5-8.9-9.1c-1.3-1.1-23.3-1.8-24.9-1.8
				C110.4,377,87.8,378.5,86.2,380.8z"/>
			<path class="st4" d="M93.2,399.7c-2.6,1-4.8,3.6-5.3,6.8c-1.3,3-2.1,22.6-2.1,26.5c0,5.3,1.5,26.2,3.9,29.7s19.5,5.7,23.2,5.7
				c3.7,0,20.8-2.2,23.2-5.7c2.4-3.5,3.9-24.4,3.9-29.7s-1.5-26.2-3.9-29.7c-0.8-3.1-3.3-5.7-6.2-6.6c-2-1.7-14.5-2.7-16.9-2.7
				C109.2,394.1,95.7,396.2,93.2,399.7z"/>
			<path class="st5" d="M112.9,411.1c-4.9,0-9.4,2.9-12.6,7.6c-3.2,4.7-5.2,11.1-5.2,18.2c0,7.1,2,13.6,5.2,18.2
				c3.2,4.7,7.7,7.6,12.6,7.6c4.9,0,9.4-2.9,12.6-7.6c3.2-4.7,5.2-11.1,5.2-18.2c0-7.1-2-13.6-5.2-18.2
				C122.2,414,117.8,411.1,112.9,411.1z"/>
		</g>
		<g>
			<path class="st6" d="M173.9,485.3h-12V357.1c0-4.5-3.7-8.2-8.2-8.2H72.1c-4.5,0-8.2,3.7-8.2,8.2v128.2h-12V357.1
				c0-11.1,9-20.2,20.2-20.2h81.6c11.1,0,20.2,9,20.2,20.2V485.3z"/>
		</g>
		<g>
			<path class="st7" d="M58.9,485.3h-2v-8h2V485.3z M168.9,478.7h-2v-8h2V478.7z M58.9,469.3h-2v-8h2V469.3z M168.9,462.7h-2v-8h2
				V462.7z M58.9,453.3h-2v-8h2V453.3z M168.9,446.7h-2v-8h2V446.7z M58.9,437.3h-2v-8h2V437.3z M168.9,430.7h-2v-8h2V430.7z
				 M58.9,421.3h-2v-8h2V421.3z M168.9,414.7h-2v-8h2V414.7z M58.9,405.3h-2v-8h2V405.3z M168.9,398.7h-2v-8h2V398.7z M58.9,389.3
				h-2v-8h2V389.3z M168.9,382.7h-2v-8h2V382.7z M58.9,373.3h-2v-8h2V373.3z M168.9,366.7h-2v-8h2V366.7z M58.9,357.3h-2v-0.2
				c0-2.8,0.8-5.5,2.2-7.9l1.7,1c-1.3,2.1-1.9,4.4-1.9,6.9V357.3z M165.5,351.4c-1.1-2.2-2.8-4.1-4.9-5.4l1.1-1.7
				c2.4,1.5,4.4,3.7,5.7,6.3L165.5,351.4z M66.2,345.3l-0.9-1.8c2.1-1,4.4-1.6,6.7-1.6h1.5v2h-1.5C70,343.9,68,344.4,66.2,345.3z
				 M153.6,343.9h-8v-2h8V343.9z M137.6,343.9h-8v-2h8V343.9z M121.6,343.9h-8v-2h8V343.9z M105.6,343.9h-8v-2h8V343.9z M89.6,343.9
				h-8v-2h8V343.9z"/>
		</g>
		<rect x="38.2" y="485.3" class="st8" width="149.3" height="13.8"/>
		<rect x="27.8" y="499.2" class="st9" width="170.1" height="13.8"/>
	</g>
	<g>
		<g>
			<path class="st1" d="M187.5,159.5c0-39.3-31.9-71.2-71.2-71.2h-3.5h-3.5c-39.3,0-71.2,31.9-71.2,71.2v0h19.7v35.6v35.6h55h55
				c0,0,0-17.8,0-35.6c0-17.8,0-35.6,0-35.6L187.5,159.5L187.5,159.5z"/>
			<path class="st2" d="M110.3,106.6c-30.7,0-55.7,24.6-56.5,55.3c-0.8,1.2-1.3,2.8-1.3,4.6c0,0.4,14.8,0.7,14.8,1
				c0.1,0.7,0.2,28,0.4,28.5c0.2,0.6,0.5,27.9,0.8,28.4c0.8,1.2,43.2,1.9,44.4,1.9s43.6-0.7,44.4-1.9c0.3-0.5,0.6-14.4,0.8-28.4
				c0.2-13.9,0.3-27.9,0.4-28.5c0-0.3,14.8-0.7,14.8-1c0,0,0,0,0,0c0-19.3-9-36.4-22.8-47.4c-9.6-7.6-21.6-12.3-34.6-12.4
				c-0.1,0-2.8,0-2.8,0S110.4,106.6,110.3,106.6z"/>
			<path class="st3" d="M111.1,124.9c-22.1,0-40.3,17.4-41.9,39.4c-1.6,2.3-2.6,5.6-2.6,9.1c0,0.7,9.9,1.4,10,2.1
				c0.1,1.3,0.4,20.3,0.8,21.5c0.4,1.2,1,20.2,1.7,21.2c1.6,2.3,31.3,3.8,33.8,3.8s32.2-1.4,33.8-3.8c0.7-1,1.2-11,1.7-21.2
				c0.4-10,0.7-20.2,0.8-21.5c0.1-0.7,10-1.4,10-2.1c0,0,0,0,0,0c0-15.2-6.7-28.8-16.9-37.7c-7.4-6.4-16.5-10.4-26.6-10.8
				c-0.2,0-2.1,0-2.2-0.1C113.2,124.9,111.3,124.9,111.1,124.9z"/>
			<path class="st4" d="M112,143.2c-13.5,0-24.8,10.1-27.2,23.5c-2.4,3.5-3.9,8.3-3.9,13.7c0,1.1,5,2.1,5.1,3.1
				c0.2,2,0.6,12.7,1.2,14.4c0.6,1.9,1.5,12.5,2.5,13.9c2.4,3.5,19.5,5.7,23.2,5.7c3.7,0,20.8-2.2,23.2-5.7c1-1.5,1.9-7.6,2.5-13.9
				c0.6-6.2,1-12.5,1.2-14.4c0.1-1,5.1-2.1,5.1-3.1c0,0,0,0,0,0c0-11.2-4.4-21.1-11.1-28c-5.1-5.2-11.5-8.6-18.6-9.1
				c-0.2,0-1.4-0.1-1.6-0.1C113.4,143.2,112.3,143.2,112,143.2z"/>
			<path class="st5" d="M112.9,161.5c-4.9,0-9.4,2.9-12.6,7.6c-3.2,4.7-5.2,11.1-5.2,18.2c0,7.1,2,13.6,5.2,18.2
				c3.2,4.7,7.7,7.6,12.6,7.6c4.9,0,9.4-2.9,12.6-7.6c3.2-4.7,5.2-11.1,5.2-18.2c0-7.1-2-13.6-5.2-18.2
				C122.2,164.4,117.8,161.5,112.9,161.5z"/>
		</g>
		<path class="st10" d="M57.9,230.7v-71.2H38.2v0c0-39.3,31.9-71.2,71.2-71.2h3.5h3.5c39.3,0,71.2,31.9,71.2,71.2v0h-19.7
			c0,0,0,71.2,0,71.2"/>
		<g>
			<g>
				<rect x="56.9" y="226.7" class="st7" width="2" height="4"/>
			</g>
			<g>
				<path class="st7" d="M58.9,217.6h-2v-9h2V217.6z M58.9,199.6h-2v-9h2V199.6z M58.9,181.5h-2v-9h2V181.5z"/>
			</g>
			<g>
				<polygon class="st7" points="58.9,163.5 56.9,163.5 56.9,160.5 53.9,160.5 53.9,158.5 58.9,158.5 				"/>
			</g>
			<g>
				<path class="st7" d="M42.2,160.5h-5v-1c0-1.3,0-2.7,0.1-4.1l2,0.1c-0.1,1-0.1,2-0.1,2.9h3V160.5z"/>
			</g>
			<g>
				<path class="st7" d="M40.2,147.5l-2-0.3c0.5-2.7,1.1-5.5,1.9-8.1l1.9,0.6C41.3,142.1,40.7,144.8,40.2,147.5z M185.5,147.4
					c-0.5-2.7-1.1-5.3-1.9-7.9l1.9-0.6c0.8,2.7,1.4,5.4,1.9,8.1L185.5,147.4z M44.8,131.9l-1.8-0.8c1.1-2.6,2.3-5.1,3.7-7.5l1.7,1
					C47.1,127,45.9,129.4,44.8,131.9z M180.9,131.9c-1.1-2.5-2.3-4.9-3.6-7.3l1.7-1c1.4,2.4,2.6,4.9,3.7,7.5L180.9,131.9z
					 M52.9,117.8l-1.6-1.2c1.6-2.2,3.4-4.4,5.3-6.4l1.5,1.4C56.3,113.5,54.5,115.6,52.9,117.8z M172.8,117.8
					c-1.6-2.2-3.4-4.3-5.2-6.2l1.5-1.4c1.9,2,3.7,4.2,5.3,6.4L172.8,117.8z M64,106l-1.3-1.5c2.1-1.8,4.4-3.5,6.7-5l1.1,1.7
					C68.2,102.6,66,104.2,64,106z M161.8,105.9c-2.1-1.8-4.2-3.4-6.5-4.9l1.1-1.7c2.3,1.5,4.6,3.2,6.7,5L161.8,105.9z M77.5,96.9
					l-0.9-1.8c2.5-1.3,5-2.4,7.6-3.4l0.7,1.9C82.4,94.6,79.9,95.7,77.5,96.9z M148.3,96.9c-2.4-1.2-4.9-2.3-7.4-3.3l0.7-1.9
					c2.6,1,5.2,2.1,7.7,3.4L148.3,96.9z M92.6,91.3l-0.5-1.9c2.7-0.7,5.5-1.2,8.2-1.5l0.2,2C98,90.2,95.3,90.6,92.6,91.3z
					 M133.1,91.3c-2.6-0.6-5.3-1.1-8-1.5l0.2-2c2.8,0.3,5.5,0.8,8.2,1.5L133.1,91.3z M117,89.3l-7.6,0l-0.7,0l0-2l7.6,0l0.6,0
					L117,89.3z"/>
			</g>
			<g>
				<path class="st7" d="M188.5,160.5h-5v-2h3c0-1,0-2-0.1-2.9l2-0.1c0.1,1.3,0.1,2.7,0.1,4.1V160.5z"/>
			</g>
			<g>
				<polygon class="st7" points="168.9,163.5 166.9,163.5 166.9,158.5 171.9,158.5 171.9,160.5 168.9,160.5 				"/>
			</g>
			<g>
				<path class="st7" d="M168.9,217.7h-2v-9h2V217.7z M168.9,199.6h-2v-9h2V199.6z M168.9,181.6h-2v-9h2V181.6z"/>
			</g>
			<g>
				<rect x="166.9" y="226.7" class="st7" width="2" height="4"/>
			</g>
		</g>
		<rect x="38.2" y="230.7" class="st8" width="149.3" height="13.8"/>
		<rect x="27.8" y="244.5" class="st9" width="170.1" height="13.8"/>
	</g>
	<g>
		<g>
			<path class="st1" d="M318.3,342.9L318.3,342.9c-30.4,0-55,24.6-55,55v43.7v43.7h55h55v-43.7v-43.7
				C373.2,367.5,348.6,342.9,318.3,342.9z"/>
			<path class="st2" d="M318.3,360C318.3,360,318.3,360,318.3,360c-11.3,0-21.6,4.3-29.5,11.4c-9.8,8.8-16.1,21.7-16.1,36.2
				c0,0.8,0.1,34.4,0.3,35.2c0.2,0.8,0.6,34.3,1,35c0.8,1.2,43.2,1.9,44.4,1.9c1.2,0,43.6-0.7,44.4-1.9c0.4-0.6,0.8-34.1,1-35
				c0.2-0.7,0.3-34.3,0.3-35.2c0-14.5-6.3-27.5-16.1-36.2C339.8,364.3,329.5,360,318.3,360z"/>
			<path class="st3" d="M318.3,377C318.3,377,318.3,377,318.3,377c-9.2,0-17.5,3.9-23.9,10.2c-7.6,7.4-12.5,18.2-12.5,30.2
				c0,1.7,0.2,25.1,0.6,26.6c0.5,1.6,1.1,25,2,26.2c1.6,2.3,31.3,3.8,33.8,3.8s32.2-1.4,33.8-3.8c0.8-1.2,1.5-24.6,2-26.2
				c0.4-1.5,0.6-24.9,0.6-26.6c0-12.1-4.9-22.8-12.5-30.2C335.7,380.9,327.4,377,318.3,377z"/>
			<path class="st4" d="M318.3,394.1C318.3,394.1,318.3,394.1,318.3,394.1c-7,0-13.4,3.4-18.2,8.9c-5.4,6.1-8.9,14.7-8.9,24.2
				c0,2.5,0.3,15.9,0.9,18.1c0.7,2.5,1.7,15.6,3,17.5c2.4,3.5,19.5,5.7,23.2,5.7c3.7,0,20.8-2.2,23.2-5.7c1.3-1.8,2.3-15,3-17.5
				c0.6-2.2,0.9-15.6,0.9-18.1c0-9.6-3.5-18.2-8.9-24.2C331.6,397.5,325.3,394.1,318.3,394.1z"/>
			<path class="st5" d="M318.3,411.1c-4.9,0-9.4,2.9-12.6,7.6c-3.2,4.7-5.2,11.1-5.2,18.2c0,7.1,2,13.6,5.2,18.2
				c3.2,4.7,7.7,7.6,12.6,7.6s9.4-2.9,12.6-7.6c3.2-4.7,5.2-11.1,5.2-18.2c0-7.1-2-13.6-5.2-18.2C327.6,414,323.2,411.1,318.3,411.1
				z"/>
		</g>
		<path class="st10" d="M263.3,485.3v-87.4c0-30.4,24.6-55,55-55h0c30.4,0,55,24.6,55,55v87.4"/>
		<g>
			<g>
				<rect x="262.3" y="481.3" class="st7" width="2" height="4"/>
			</g>
			<g>
				<path class="st7" d="M264.3,473.4h-2v-7.9h2V473.4z M374.2,473.3h-2v-7.9h2V473.3z M264.3,457.6h-2v-7.9h2V457.6z M374.2,457.5
					h-2v-7.9h2V457.5z M264.3,441.8h-2V434h2V441.8z M374.2,441.7h-2v-7.9h2V441.7z M264.3,426.1h-2v-7.9h2V426.1z M374.2,425.9h-2
					V418h2V425.9z M264.3,410.3h-2v-7.9h2V410.3z M374.2,410.2h-2v-7.9h2V410.2z M264.4,394.5l-2-0.1c0.2-2.7,0.5-5.3,1.1-8l2,0.4
					C264.9,389.4,264.5,392,264.4,394.5z M372.1,394.4c-0.2-2.6-0.5-5.2-1-7.7l2-0.4c0.5,2.6,0.9,5.3,1.1,8L372.1,394.4z
					 M267.5,379.4l-1.9-0.7c0.9-2.5,2-5,3.3-7.3l1.8,0.9C269.5,374.6,268.4,377,267.5,379.4z M369,379.3c-0.9-2.4-2-4.8-3.2-7.1
					l1.8-1c1.3,2.4,2.4,4.8,3.3,7.3L369,379.3z M274.8,365.8l-1.6-1.2c1.6-2.1,3.3-4.2,5.2-6.1l1.4,1.4
					C278.1,361.8,276.4,363.7,274.8,365.8z M361.6,365.7c-1.5-2.1-3.2-4-5.1-5.9l1.4-1.4c1.9,1.9,3.6,3.9,5.2,6.1L361.6,365.7z
					 M285.7,354.8l-1.2-1.6c2.1-1.6,4.4-3.1,6.7-4.4l1,1.8C290,351.9,287.8,353.3,285.7,354.8z M350.7,354.8c-2.1-1.6-4.2-3-6.5-4.2
					l1-1.8c2.3,1.3,4.6,2.8,6.7,4.4L350.7,354.8z M299.2,347.4l-0.7-1.9c2.5-0.9,5.1-1.7,7.7-2.3l0.4,2
					C304.1,345.7,301.6,346.5,299.2,347.4z M337.2,347.3c-2.4-0.9-4.9-1.6-7.4-2.2l0.4-2c2.6,0.6,5.2,1.3,7.7,2.3L337.2,347.3z
					 M314.3,344.1l-0.1-2c2.7-0.2,5.4-0.2,8,0l-0.1,2C319.5,343.9,316.9,343.9,314.3,344.1z"/>
			</g>
			<g>
				<rect x="372.2" y="481.3" class="st7" width="2" height="4"/>
			</g>
		</g>
		<rect x="243.6" y="485.3" class="st8" width="149.3" height="13.8"/>
		<rect x="233.2" y="499.2" class="st9" width="170.1" height="13.8"/>
	</g>
	<g>
		<g>
			<path class="st1" d="M370.4,156h-13.5v-29.1c0-21.3-17.3-38.6-38.6-38.6h0c-21.3,0-38.6,17.3-38.6,38.6V156h-13.5
				c-1.6,0-2.8,1.3-2.8,2.8v35.9v35.9h55h55v-35.9v-35.9C373.2,157.3,372,156,370.4,156z"/>
			<path class="st2" d="M286.2,136.2c-0.5,0.8-0.9,23.5-1.1,24.6c-0.1,0.4-10.3,0.9-10.3,1.4c-1.2,0.2-2.1,1.3-2.1,2.6
				c0,0.8,0.1,28.6,0.3,29.3c0.2,0.8,0.6,28.5,1,29.1c0.8,1.2,43.2,1.9,44.4,1.9c1.2,0,43.6-0.7,44.4-1.9c0.4-0.6,0.8-28.3,1-29.1
				c0.2-0.7,0.3-28.5,0.3-29.3c0-1.3-1-2.4-2.1-2.6c0-0.5-10.2-0.9-10.3-1.4c-0.2-1-0.6-23.8-1.1-24.6
				c-0.8-17.2-14.9-30.8-32.1-30.8c0,0,0,0,0,0C301,105.3,287,119,286.2,136.2z"/>
			<path class="st3" d="M292.7,145.5c-1,1.5-1.8,17.9-2.2,20c-0.2,0.9-7.1,1.8-7.1,2.7c-0.8,0.3-1.4,1.3-1.4,2.4
				c0,1.7,0.2,21.3,0.6,22.7c0.5,1.6,1.1,21.1,2,22.3c1.6,2.3,31.3,3.8,33.8,3.8s32.2-1.4,33.8-3.8c0.8-1.2,1.5-20.7,2-22.3
				c0.4-1.5,0.6-21,0.6-22.7c0-1.1-0.6-2-1.4-2.3c0-0.9-6.9-1.9-7.1-2.7c-0.4-2.1-1.2-18.5-2.2-20c-1.6-13-12.5-23.1-25.6-23.1
				c0,0,0,0,0,0C305.1,122.4,294.3,132.5,292.7,145.5z"/>
			<path class="st4" d="M299.2,154.7c-1.6,2.3-2.7,12.3-3.4,15.5c-0.3,1.3-3.8,2.7-3.9,4.1c-0.4,0.5-0.7,1.2-0.7,2.1
				c0,2.5,0.3,13.9,0.9,16.1c0.7,2.5,1.7,13.7,3,15.5c2.4,3.5,19.5,5.7,23.2,5.7c3.7,0,20.8-2.2,23.2-5.7c1.3-1.8,2.3-13,3-15.5
				c0.6-2.2,0.9-13.6,0.9-16.1c0-0.9-0.3-1.6-0.7-2.1c-0.1-1.4-3.6-2.8-3.9-4.1c-0.6-3.1-1.8-13.2-3.4-15.5
				c-2.4-8.8-10.1-15.3-19.1-15.3c0,0,0,0,0,0C309.2,139.4,301.6,145.9,299.2,154.7z"/>
			<path class="st5" d="M318.3,156.5c-4.9,0-9.4,2.9-12.6,7.6s-5.2,11.1-5.2,18.2s2,13.6,5.2,18.2s7.7,7.6,12.6,7.6
				s9.4-2.9,12.6-7.6s5.2-11.1,5.2-18.2s-2-13.6-5.2-18.2S323.2,156.5,318.3,156.5z"/>
		</g>
		<path class="st10" d="M263.3,230.7v-71.8c0-1.6,1.3-2.8,2.8-2.8h13.5v-29.1c0-21.3,17.3-38.6,38.6-38.6h0
			c21.3,0,38.6,17.3,38.6,38.6V156h13.5c1.6,0,2.8,1.3,2.8,2.8v71.8"/>
		<g>
			<path class="st7" d="M374.2,230.7h-2v-7.3h2V230.7z M264.3,230.7h-2v-8h2V230.7z M374.2,215.4h-2v-8h2V215.4z M264.3,214.7h-2v-8
				h2V214.7z M374.2,199.4h-2v-8h2V199.4z M264.3,198.7h-2v-8h2V198.7z M374.2,183.4h-2v-8h2V183.4z M264.3,182.7h-2v-8h2V182.7z
				 M374.2,167.4h-2v-8h2V167.4z M264.3,166.7h-2v-7.8c0-0.1,0-0.2,0-0.2l2,0.1l0,0.1V166.7z M367.4,157h-8v-2h8V157z M277.8,157h-8
				v-2h8V157z M357.9,150.6h-2v-8h2V150.6z M280.6,149.8h-2v-8h2V149.8z M357.9,134.6h-2l0-8l2,0L357.9,134.6z M280.6,133.8h-2v-7
				c0-0.4,0-0.7,0-1.1l2,0.1c0,0.3,0,0.7,0,1V133.8z M355,118.9c-0.6-2.5-1.4-5-2.4-7.4l1.8-0.8c1.1,2.5,2,5.1,2.6,7.8L355,118.9z
				 M281.7,118.2l-1.9-0.5c0.6-2.7,1.5-5.3,2.7-7.7l1.8,0.9C283.1,113.2,282.3,115.6,281.7,118.2z M348.7,104.8
				c-1.5-2.1-3.3-4-5.2-5.8l1.3-1.5c2,1.8,3.9,3.9,5.5,6.1L348.7,104.8z M288.3,104.2l-1.6-1.2c1.7-2.2,3.5-4.2,5.6-6l1.3,1.5
				C291.6,100.2,289.8,102.1,288.3,104.2z M337.2,94.4c-2.2-1.3-4.6-2.4-7.1-3.2l0.6-1.9c2.6,0.9,5.1,2,7.5,3.4L337.2,94.4z M300,94
				l-1-1.7c2.4-1.3,4.9-2.4,7.5-3.2l0.6,1.9C304.6,91.7,302.2,92.8,300,94z M322.5,89.5c-2.6-0.3-5.2-0.3-7.8-0.1l-0.2-2
				c2.7-0.3,5.5-0.2,8.2,0.1L322.5,89.5z"/>
		</g>
		<rect x="243.6" y="230.7" class="st8" width="149.3" height="13.8"/>
		<rect x="233.2" y="244.5" class="st9" width="170.1" height="13.8"/>
	</g>
	<g>
		<g>
			<path class="st1" d="M767.6,410.7c0,0-2.6-44.8-38.6-67.7c-36.1,22.9-38.6,67.7-38.6,67.7c-9,0-16.4,7.3-16.4,16.4v58.3h55h55
				V427C784,418,776.7,410.7,767.6,410.7z"/>
			<path class="st2" d="M729,361.2c-28.3,17.2-31.3,51.5-32.1,52.7c-7.6,1.2-13.6,8.3-13.6,16.8c0,1.8,0.5,47.1,1.3,48.3
				s43.2,1.9,44.4,1.9s43.6-0.7,44.4-1.9s1.3-46.5,1.3-48.3c0-8.6-6-15.7-13.6-16.8C760.3,412.7,757.3,378.4,729,361.2z"/>
			<path class="st3" d="M729,379.5c-20.5,11.5-24,35.3-25.6,37.6c-6.1,2.3-10.8,9.2-10.8,17.3c0,3.6,1,35.9,2.6,38.3
				c1.6,2.3,31.3,3.8,33.8,3.8c2.5,0,32.2-1.4,33.8-3.8c1.6-2.3,2.6-34.7,2.6-38.3c0-8.1-4.7-15-10.8-17.3
				C753,414.8,749.5,391,729,379.5z"/>
			<path class="st4" d="M729,397.8c-12.7,5.7-16.7,19.1-19.1,22.6c-4.7,3.5-8,10.2-8,17.8c0,5.3,1.5,24.8,3.9,28.3
				c2.4,3.5,19.5,5.7,23.2,5.7s20.8-2.2,23.2-5.7c2.4-3.5,3.9-22.9,3.9-28.3c0-7.6-3.3-14.3-8-17.8
				C745.7,416.9,741.7,403.6,729,397.8z"/>
			<path class="st5" d="M729,416.1c-4.9,0-9.4,2.9-12.6,7.6c-3.2,4.7-5.2,11.1-5.2,18.2s2,13.6,5.2,18.2c3.2,4.7,7.7,7.6,12.6,7.6
				s9.4-2.9,12.6-7.6c3.2-4.7,5.2-11.1,5.2-18.2s-2-13.6-5.2-18.2C738.4,419,733.9,416.1,729,416.1z"/>
		</g>
		<path class="st10" d="M784,485.3V427c0-9-7.3-16.4-16.4-16.4l0,0c0,0-2.6-44.8-38.6-67.7c-36.1,22.9-38.6,67.7-38.6,67.7l0,0
			c-9,0-16.4,7.3-16.4,16.4v58.3"/>
		<g>
			<path class="st7" d="M785,485.3h-2v-8h2V485.3z M675,484.1h-2v-8h2V484.1z M785,469.3h-2v-8h2V469.3z M675,468.1h-2v-8h2V468.1z
				 M785,453.3h-2v-8h2V453.3z M675,452.1h-2v-8h2V452.1z M785,437.3h-2v-8h2V437.3z M675,436.1h-2v-8h2V436.1z M782.1,421.8
				c-0.9-2.4-2.3-4.5-4.2-6.2l1.3-1.5c2.1,1.9,3.7,4.3,4.7,7L782.1,421.8z M676.4,420.7l-1.8-0.8c1.2-2.6,3-4.9,5.2-6.6l1.2,1.6
				C679,416.4,677.4,418.4,676.4,420.7z M771.4,412.1c-1.2-0.3-2.5-0.4-3.7-0.5l-0.9,0l-0.1-0.9c0,0-0.1-1.5-0.4-3.9l2-0.3
				c0.2,1.4,0.3,2.4,0.4,3.1c1.1,0.1,2.2,0.2,3.3,0.5L771.4,412.1z M687.8,411.9l-0.3-2c0.7-0.1,1.3-0.2,2-0.2
				c0.1-0.9,0.2-2.4,0.5-4.4l2,0.3c-0.5,3.2-0.6,5-0.6,5.1l-0.1,0.9l-0.9,0C689.5,411.7,688.7,411.7,687.8,411.9z M764.8,399
				c-0.6-2.6-1.2-5.1-2-7.7l1.9-0.6c0.8,2.6,1.5,5.2,2.1,7.8L764.8,399z M693.5,397.8l-1.9-0.5c0.6-2.6,1.3-5.2,2.1-7.8l1.9,0.6
				C694.8,392.7,694.1,395.3,693.5,397.8z M760.2,383.8c-1-2.5-2-4.9-3.2-7.3l1.8-0.9c1.2,2.4,2.2,4.9,3.2,7.4L760.2,383.8z
				 M698.3,382.7l-1.9-0.7c1-2.5,2.1-5,3.3-7.4l1.8,0.9C700.4,377.8,699.3,380.2,698.3,382.7z M753.3,369.6
				c-1.4-2.3-2.8-4.5-4.4-6.6l1.6-1.2c1.6,2.1,3.1,4.4,4.5,6.7L753.3,369.6z M705.4,368.6l-1.7-1c1.4-2.3,3-4.6,4.6-6.7l1.6,1.2
				C708.3,364.1,706.8,366.3,705.4,368.6z M743.9,356.9c-1.8-2-3.6-3.8-5.6-5.6l1.3-1.5c2,1.8,3.9,3.7,5.7,5.7L743.9,356.9z
				 M714.9,356l-1.5-1.4c1.8-2,3.8-3.9,5.8-5.6l1.3,1.5C718.6,352.2,716.7,354.1,714.9,356z M732.2,346.3c-1.1-0.8-2.1-1.5-3.2-2.2
				c-0.8,0.5-1.5,1-2.2,1.5l-1.1-1.6c0.9-0.7,1.9-1.3,2.8-1.9l0.5-0.3l0.5,0.3c1.3,0.8,2.6,1.7,3.9,2.6L732.2,346.3z"/>
		</g>
		<rect x="654.3" y="485.3" class="st8" width="149.3" height="13.8"/>
		<rect x="644" y="499.2" class="st9" width="170.1" height="13.8"/>
	</g>
	<g>
		<g>
			<path class="st1" d="M523.6,342.9c-49.4,18.9-55,67.7-55,67.7V448v37.3h55h55V448v-37.3C578.6,410.7,573,361.9,523.6,342.9z"/>
			<path class="st2" d="M523.6,360c-12.1,4.2-21.3,11-28,18.7c-15,17-17.7,36.7-17.7,38.5c0,0.8,0.1,29.6,0.3,30.4
				c0.2,0.8,0.6,29.6,1,30.2c0.8,1.2,43.2,1.9,44.4,1.9s43.6-0.7,44.4-1.9c0.4-0.6,0.8-29.4,1-30.2c0.2-0.7,0.3-29.5,0.3-30.4
				c0-1.8-2.7-21.6-17.7-38.5C544.9,371,535.8,364.2,523.6,360z"/>
			<path class="st3" d="M523.6,377c-9.7,2.8-17.2,8.4-22.9,15c-11,12.9-13.5,28.2-13.5,31.8c0,1.7,0.2,22,0.6,23.4
				c0.5,1.6,1.1,21.8,2,23c1.6,2.3,31.3,3.8,33.8,3.8c2.5,0,32.2-1.4,33.8-3.8c0.8-1.2,1.5-21.4,2-23c0.4-1.5,0.6-21.8,0.6-23.4
				c0-3.6-2.5-18.8-13.5-31.8C540.9,385.4,533.4,379.8,523.6,377z"/>
			<path class="st4" d="M523.6,394.1c-7.3,1.4-13.3,5.7-17.7,11.3c-7,8.8-9.4,19.7-9.4,25c0,2.5,0.3,14.3,0.9,16.5
				c0.7,2.5,1.7,14,3,15.9c2.4,3.5,19.5,5.7,23.2,5.7c3.7,0,20.8-2.2,23.2-5.7c1.3-1.8,2.3-13.4,3-15.9c0.6-2.2,0.9-14,0.9-16.5
				c0-5.3-2.3-16.2-9.4-25C536.9,399.7,530.9,395.5,523.6,394.1z"/>
			<path class="st5" d="M523.6,411.1c-4.9,0-9.4,2.9-12.6,7.6c-3.2,4.7-5.2,11.1-5.2,18.2c0,7.1,2,13.6,5.2,18.2
				c3.2,4.7,7.7,7.6,12.6,7.6s9.4-2.9,12.6-7.6c3.2-4.7,5.2-11.1,5.2-18.2c0-7.1-2-13.6-5.2-18.2C533,414,528.5,411.1,523.6,411.1z"
				/>
		</g>
		<path class="st10" d="M578.6,485.3v-74.7c0,0-5.6-48.8-55-67.7c-49.4,18.9-55,67.7-55,67.7v74.7"/>
		<g>
			<g>
				<rect x="577.6" y="481.3" class="st7" width="2" height="4"/>
			</g>
			<g>
				<path class="st7" d="M469.6,473.5h-2v-7.9h2V473.5z M579.6,473.4h-2v-7.9h2V473.4z M469.6,457.7h-2v-7.9h2V457.7z M579.6,457.6
					h-2v-7.9h2V457.6z M469.6,441.9h-2v-7.9h2V441.9z M579.6,441.8h-2v-7.9h2V441.8z M469.6,426h-2v-7.9h2V426z M579.6,426h-2v-7.9
					h2V426z M469.7,410.4l-2-0.3c0.1-1,0.6-3.9,1.7-7.9l1.9,0.5C470.3,406.6,469.8,409.4,469.7,410.4z M577.6,410.3
					c-0.1-1-0.6-3.8-1.6-7.6l1.9-0.5c1.1,4,1.5,6.8,1.7,7.9L577.6,410.3z M473.7,395.3l-1.9-0.7c0.9-2.5,1.9-5,3.1-7.4l1.8,0.8
					C475.6,390.4,474.6,392.8,473.7,395.3z M573.6,395.2c-0.9-2.4-1.9-4.9-3-7.2l1.8-0.8c1.1,2.4,2.1,4.9,3.1,7.4L573.6,395.2z
					 M480.3,381.1l-1.7-1c1.3-2.3,2.8-4.6,4.3-6.8l1.6,1.1C483,376.6,481.6,378.8,480.3,381.1z M567,381.1c-1.3-2.3-2.7-4.5-4.2-6.6
					l1.6-1.1c1.5,2.2,3,4.4,4.3,6.8L567,381.1z M489.2,368.3l-1.5-1.3c1.7-2,3.5-4,5.4-5.9l1.4,1.4
					C492.7,364.4,490.9,366.3,489.2,368.3z M558,368.3c-1.7-2-3.5-3.9-5.3-5.7l1.4-1.4c1.9,1.9,3.7,3.8,5.4,5.9L558,368.3z
					 M500.4,357.4l-1.3-1.6c2.1-1.7,4.2-3.3,6.4-4.7l1.1,1.7C504.5,354.2,502.4,355.8,500.4,357.4z M546.9,357.4
					c-2-1.6-4.1-3.2-6.3-4.6l1.1-1.7c2.2,1.5,4.4,3.1,6.4,4.7L546.9,357.4z M513.3,348.7l-1-1.8c2.3-1.2,4.7-2.4,7.2-3.5l0.8,1.8
					C517.9,346.4,515.6,347.5,513.3,348.7z M533.9,348.7c-2.3-1.2-4.6-2.4-7-3.4l0.8-1.8c2.5,1.1,4.9,2.2,7.2,3.5L533.9,348.7z"/>
			</g>
			<g>
				<rect x="467.6" y="481.3" class="st7" width="2" height="4"/>
			</g>
		</g>
		<rect x="449" y="485.3" class="st8" width="149.3" height="13.8"/>
		<rect x="438.6" y="499.2" class="st9" width="170.1" height="13.8"/>
	</g>
	<g>
		<g>
			<path class="st1" d="M566.8,105.4h-9.7c-7.5-10.3-19.7-17.1-33.4-17.1c-13.8,0-25.9,6.7-33.4,17.1h-9.7
				c-6.6,0-11.9,5.3-11.9,11.9v56.7v56.7h55h55v-56.7v-56.7C578.6,110.7,573.3,105.4,566.8,105.4z"/>
			<path class="st2" d="M488.1,120c-5.1,0.3-9.3,4.6-9.5,9.9c-0.5,1-0.7,44.8-0.7,46.1c0,1.8,0.5,45.9,1.3,47.1
				c0.8,1.2,43.2,1.9,44.4,1.9s43.6-0.7,44.4-1.9c0.8-1.2,1.3-45.3,1.3-47.1c0-1.3-0.3-45.1-0.7-46.1c-0.2-5.3-4.3-9.6-9.5-9.9
				c-0.1-0.2-7.6-0.4-7.7-0.6c-6.4-8.6-16.4-14.1-27.8-14.1c-11.3,0-21.4,5.5-27.8,14.1C495.7,119.6,488.3,119.8,488.1,120z"/>
			<path class="st3" d="M495.8,134.7c-3.7,0.6-6.8,4-7.1,8c-0.9,2-1.4,32.8-1.4,35.4c0,3.6,1,35.2,2.6,37.5
				c1.6,2.3,31.3,3.8,33.8,3.8c2.5,0,32.2-1.4,33.8-3.8s2.6-33.9,2.6-37.5c0-2.6-0.5-33.4-1.4-35.4c-0.3-4-3.4-7.4-7.1-8
				c-0.3-0.4-5.5-0.8-5.8-1.2c-5.2-6.8-13.2-11.1-22.1-11.1s-16.8,4.3-22.1,11.1C501.2,133.9,496.1,134.3,495.8,134.7z"/>
			<path class="st4" d="M503.4,149.4c-2.3,0.9-4.2,3.3-4.7,6.1c-1.4,3-2.2,20.9-2.2,24.8c0,5.3,1.5,24.4,3.9,27.9
				c2.4,3.5,19.5,5.7,23.2,5.7s20.8-2.2,23.2-5.7c2.4-3.5,3.9-22.5,3.9-27.9c0-3.9-0.8-21.7-2.2-24.8c-0.5-2.8-2.4-5.1-4.7-6.1
				c-0.4-0.6-3.3-1.2-3.8-1.8c-4.1-5-9.9-8.2-16.4-8.2c-6.4,0-12.3,3.1-16.4,8.2C506.8,148.1,503.9,148.7,503.4,149.4z"/>
			<path class="st5" d="M523.6,156.5c-4.9,0-9.4,2.9-12.6,7.6c-3.2,4.7-5.2,11.1-5.2,18.2s2,13.6,5.2,18.2c3.2,4.7,7.7,7.6,12.6,7.6
				s9.4-2.9,12.6-7.6c3.2-4.7,5.2-11.1,5.2-18.2s-2-13.6-5.2-18.2C533,159.4,528.5,156.5,523.6,156.5z"/>
		</g>
		<path class="st10" d="M578.6,230.7V117.2c0-6.6-5.3-11.9-11.9-11.9h-9.7c-7.5-10.3-19.7-17.1-33.4-17.1
			c-13.8,0-25.9,6.7-33.4,17.1h-9.7c-6.6,0-11.9,5.3-11.9,11.9v113.5"/>
		<g>
			<path class="st7" d="M579.6,230.7h-2v-8h2V230.7z M469.6,229.1h-2v-8h2V229.1z M579.6,214.7h-2v-8h2V214.7z M469.6,213.1h-2v-8h2
				V213.1z M579.6,198.7h-2v-8h2V198.7z M469.6,197.1h-2v-8h2V197.1z M579.6,182.7h-2v-8h2V182.7z M469.6,181.1h-2v-8h2V181.1z
				 M579.6,166.7h-2v-8h2V166.7z M469.6,165.1h-2v-8h2V165.1z M579.6,150.7h-2v-8h2V150.7z M469.6,149.1h-2v-8h2V149.1z
				 M579.6,134.7h-2v-8h2V134.7z M469.6,133.1h-2v-8h2V133.1z M579.6,118.7h-2v-1.5c0-2-0.6-4-1.6-5.7l1.7-1c1.2,2,1.9,4.4,1.9,6.7
				V118.7z M469.6,117.1l-2,0c0-2.9,1-5.8,2.9-8l1.6,1.3C470.5,112.3,469.7,114.6,469.6,117.1z M570.4,107c-1.2-0.4-2.4-0.6-3.7-0.6
				c0,0,0,0,0,0h-3.9v-2h3.9c0,0,0,0,0,0c1.5,0,3,0.3,4.4,0.8L570.4,107z M478.2,106.6l-0.4-2c0.9-0.2,1.8-0.3,2.7-0.3h5.4v2h-5.4
				C479.7,106.4,478.9,106.4,478.2,106.6z M555,104.2c-1.6-2-3.5-3.9-5.5-5.6l1.3-1.5c2.1,1.8,4,3.7,5.7,5.8L555,104.2z
				 M493.3,103.1l-1.5-1.3c1.8-2.1,3.8-3.9,5.9-5.6l1.2,1.6C496.9,99.3,495,101.1,493.3,103.1z M543.1,94.3
				c-2.3-1.3-4.7-2.3-7.2-3.1l0.6-1.9c2.6,0.8,5.1,1.9,7.5,3.2L543.1,94.3z M505.5,93.6l-0.9-1.8c2.4-1.2,5-2.2,7.6-3l0.5,1.9
				C510.3,91.4,507.9,92.4,505.5,93.6z M528.3,89.5c-2.6-0.3-5.2-0.3-7.8-0.1l-0.2-2c2.7-0.2,5.5-0.2,8.2,0.2L528.3,89.5z"/>
		</g>
		<rect x="449" y="230.7" class="st8" width="149.3" height="13.8"/>
		<rect x="438.6" y="244.5" class="st9" width="170.1" height="13.8"/>
	</g>
	<g>
		<g>
			<path class="st1" d="M760.5,123.6v-3.8c0-17.4-14.1-31.5-31.5-31.5h0c-17.4,0-31.5,14.1-31.5,31.5v3.8c0,13-10.5,23.6-23.5,23.6
				v41.7v41.7h55h55v-41.7v-41.7C771,147.2,760.5,136.6,760.5,123.6z"/>
			<path class="st11" d="M703.8,134.5c-0.1,0.2-0.2,2.9-0.3,3c-0.9,10.2-8.4,19.2-17.1,21.3c0,1.1,0.1,30,0.4,31
				c0.3,1.1,0.8,29.9,1.3,30.7c1.1,1.6,39.2,2.5,40.9,2.5s39.8-1,40.9-2.5c0.6-0.8,1-29.6,1.3-30.7c0.3-1,0.4-29.9,0.4-31
				c-8.7-2.1-16.2-11.2-17.1-21.3c-0.1-0.2-0.2-2.9-0.3-3c-1.1-13.1-12-23.5-25.2-23.5c0,0,0,0,0,0
				C715.8,111,704.9,121.4,703.8,134.5z"/>
			<path class="st12" d="M710.1,149.3c-0.2,0.3-0.4,1.9-0.6,2.3c-1.8,7.3-6.3,14.8-10.7,19c0,2.2,0.3,18.3,0.8,20.3
				c0.6,2.2,1.5,18.1,2.6,19.7c2.1,3.1,23.4,5,26.7,5s24.6-1.9,26.7-5c1.1-1.6,2-17.5,2.6-19.7c0.5-2,0.8-18,0.8-20.3
				c-4.3-4.3-8.9-11.7-10.7-19c-0.2-0.3-0.4-1.9-0.6-2.3c-2.1-8.9-9.8-15.5-18.9-15.5c0,0,0,0,0,0
				C719.9,133.7,712.3,140.4,710.1,149.3z"/>
			<path class="st5" d="M729,156.5c-4.9,0-9.4,2.9-12.6,7.6c-3.2,4.7-5.2,11.1-5.2,18.2s2,13.6,5.2,18.2c3.2,4.7,7.7,7.6,12.6,7.6
				s9.4-2.9,12.6-7.6c3.2-4.7,5.2-11.1,5.2-18.2s-2-13.6-5.2-18.2C738.4,159.4,733.9,156.5,729,156.5z"/>
		</g>
		<rect x="654.3" y="230.7" class="st8" width="149.3" height="13.8"/>
		<rect x="644" y="244.5" class="st9" width="170.1" height="13.8"/>
		<g>
			<path class="st6" d="M790,230.7h-12v-78.1c-13.4-2.8-23.5-14.7-23.5-29v-3.8c0-14.1-11.4-25.5-25.5-25.5s-25.5,11.4-25.5,25.5
				v3.8c0,14.3-10.1,26.2-23.5,29v78.1h-12v-83.5c0-3.3,2.7-6,6-6c9.7,0,17.5-7.9,17.5-17.6v-3.8c0-20.7,16.8-37.5,37.5-37.5
				c20.7,0,37.5,16.8,37.5,37.5v3.8c0,9.7,7.9,17.6,17.5,17.6c3.3,0,6,2.7,6,6V230.7z"/>
		</g>
		<g>
			<g>
				<rect x="673" y="226.7" class="st7" width="2" height="4"/>
			</g>
			<g>
				<path class="st7" d="M675,218.3h-2v-8.4h2V218.3z M675,201.5h-2v-8.4h2V201.5z M675,184.7h-2v-8.4h2V184.7z M675,168h-2v-8.4h2
					V168z"/>
			</g>
			<g>
				<path class="st7" d="M675,151.2h-2v-5h1c1.3,0,2.6-0.1,3.8-0.3l0.3,2c-1,0.2-2.1,0.3-3.2,0.3V151.2z"/>
			</g>
			<g>
				<path class="st7" d="M686.2,144.9l-1-1.7c2.3-1.3,4.3-3,6-5l1.5,1.3C690.9,141.7,688.7,143.5,686.2,144.9z M771.8,144.9
					c-2.5-1.4-4.7-3.3-6.5-5.5l1.5-1.3c1.7,2,3.7,3.7,6,5.1L771.8,144.9z M697,132.1l-1.9-0.7c0.9-2.5,1.4-5.1,1.4-7.7l2,0
					C698.5,126.6,698,129.4,697,132.1z M761,132c-1-2.7-1.5-5.5-1.5-8.4l2,0c0,2.6,0.5,5.2,1.4,7.7L761,132z M698.8,115.7l-2-0.3
					c0.4-2.8,1.1-5.6,2.2-8.2l1.8,0.8C699.9,110.4,699.2,113,698.8,115.7z M759.2,115.6c-0.4-2.6-1.1-5.2-2.1-7.6l1.8-0.8
					c1.1,2.6,1.8,5.3,2.2,8.1L759.2,115.6z M704.9,101.1l-1.6-1.2c1.7-2.2,3.7-4.2,6-6l1.2,1.6C708.4,97.2,706.5,99,704.9,101.1z
					 M753.1,101.1c-1.6-2.1-3.5-4-5.6-5.6l1.2-1.6c2.2,1.7,4.3,3.7,6,5.9L753.1,101.1z M717.3,91.6l-0.8-1.8
					c2.6-1.1,5.4-1.8,8.2-2.2l0.3,2C722.4,89.9,719.8,90.6,717.3,91.6z M740.6,91.6c-2.5-1-5-1.7-7.7-2l0.3-2
					c2.8,0.4,5.6,1.1,8.2,2.2L740.6,91.6z"/>
			</g>
			<g>
				<path class="st7" d="M785,151.2h-2v-3c-1.1,0-2.1-0.2-3.2-0.3l0.3-2c1.2,0.2,2.5,0.3,3.8,0.3h1V151.2z"/>
			</g>
			<g>
				<path class="st7" d="M785,218.3h-2v-8.4h2V218.3z M785,201.5h-2v-8.4h2V201.5z M785,184.7h-2v-8.4h2V184.7z M785,168h-2v-8.4h2
					V168z"/>
			</g>
			<g>
				<rect x="783" y="226.7" class="st7" width="2" height="4"/>
			</g>
		</g>
	</g>
</g>
</svg>
