# MagicaVoxel @ Ephtracy

# group
o 

# material
mtllib dining.mtl
usemtl palette

# normals
vn -1 0 0
vn 1 0 0
vn 0 0 1
vn 0 0 -1
vn 0 -1 0
vn 0 1 0

# texcoords
vt 0.947266 0.5
vt 0.986328 0.5

# verts
v 5.5 2.5 -1
v 5.5 2.5 -3.7
v 5.5 2.6 -1
v 5.5 2.6 -3.7
v 5.6 2 -1.1
v 5.6 2 -3.6
v 5.6 2.5 -1.1
v 5.6 2.5 -3.6
v 5.8 2.2 -3.3
v 5.8 2.2 -3.4
v 5.8 2.3 -3.3
v 5.8 2.3 -3.4
v 5.8 2.4 -3.3
v 5.8 2.4 -3.4
v 5.8 2.5 -3.3
v 5.8 2.5 -3.4
v 6.9 2.2 -3.3
v 6.9 2.2 -3.5
v 6.9 2.3 -3.4
v 6.9 2.3 -3.5
v 6.9 2.4 -3.4
v 6.9 2.4 -3.5
v 6.9 2.5 -3.3
v 6.9 2.5 -3.5
v 5.7 2.2 -1.2
v 5.7 2.2 -3.4
v 5.7 2.3 -1.2
v 5.7 2.3 -3.4
v 5.7 2.4 -1.2
v 5.7 2.4 -3.4
v 5.7 2.5 -1.2
v 5.7 2.5 -3.4
v 5.8 2.2 -3.4
v 5.8 2.2 -3.5
v 5.8 2.3 -1.2
v 5.8 2.3 -3.3
v 5.8 2.3 -3.4
v 5.8 2.3 -3.5
v 5.8 2.4 -1.2
v 5.8 2.4 -3.3
v 5.8 2.4 -3.4
v 5.8 2.4 -3.5
v 5.8 2.5 -3.4
v 5.8 2.5 -3.5
v 5.9 2 -1.1
v 5.9 2 -3.3
v 5.9 2.2 -1.2
v 5.9 2.2 -3.3
v 5.9 2.2 -3.4
v 5.9 2.3 -3.4
v 5.9 2.4 -3.4
v 5.9 2.5 -1.1
v 5.9 2.5 -1.2
v 5.9 2.5 -3.3
v 5.9 2.5 -3.4
v 6 2.5 -1
v 6 2.5 -3.2
v 6 2.6 -1
v 6 2.6 -3.2
v 7 2 -3.3
v 7 2 -3.6
v 7 2.5 -3.2
v 7 2.5 -3.3
v 7 2.5 -3.6
v 7 2.5 -3.7
v 7 2.6 -3.2
v 7 2.6 -3.7
v 5.5 2.5 -1
v 5.5 2.6 -1
v 6 2.5 -1
v 6 2.6 -1
v 5.6 2 -1.1
v 5.6 2.5 -1.1
v 5.9 2 -1.1
v 5.9 2.5 -1.1
v 6 2.5 -3.2
v 6 2.6 -3.2
v 7 2.5 -3.2
v 7 2.6 -3.2
v 5.8 2.2 -3.3
v 5.8 2.3 -3.3
v 5.8 2.4 -3.3
v 5.8 2.5 -3.3
v 5.9 2 -3.3
v 5.9 2.2 -3.3
v 5.9 2.5 -3.3
v 6.9 2.2 -3.3
v 6.9 2.5 -3.3
v 7 2 -3.3
v 7 2.5 -3.3
v 5.7 2.2 -3.4
v 5.7 2.3 -3.4
v 5.7 2.4 -3.4
v 5.7 2.5 -3.4
v 5.8 2.2 -3.4
v 5.8 2.3 -3.4
v 5.8 2.4 -3.4
v 5.8 2.5 -3.4
v 5.9 2.3 -3.4
v 5.9 2.4 -3.4
v 6.9 2.3 -3.4
v 6.9 2.4 -3.4
v 5.8 2.2 -3.5
v 5.8 2.3 -3.5
v 5.8 2.4 -3.5
v 5.8 2.5 -3.5
v 6.9 2.2 -3.5
v 6.9 2.3 -3.5
v 6.9 2.4 -3.5
v 6.9 2.5 -3.5
v 5.7 2.2 -1.2
v 5.7 2.3 -1.2
v 5.7 2.4 -1.2
v 5.7 2.5 -1.2
v 5.8 2.3 -1.2
v 5.8 2.4 -1.2
v 5.9 2.2 -1.2
v 5.9 2.5 -1.2
v 5.8 2.2 -3.4
v 5.8 2.3 -3.4
v 5.8 2.4 -3.4
v 5.8 2.5 -3.4
v 5.9 2.2 -3.4
v 5.9 2.3 -3.4
v 5.9 2.4 -3.4
v 5.9 2.5 -3.4
v 5.6 2 -3.6
v 5.6 2.5 -3.6
v 7 2 -3.6
v 7 2.5 -3.6
v 5.5 2.5 -3.7
v 5.5 2.6 -3.7
v 7 2.5 -3.7
v 7 2.6 -3.7
v 5.6 2 -1.1
v 5.9 2 -1.1
v 5.9 2 -3.3
v 7 2 -3.3
v 5.6 2 -3.6
v 7 2 -3.6
v 5.7 2.3 -1.2
v 5.8 2.3 -1.2
v 5.8 2.3 -3.3
v 5.7 2.3 -3.4
v 5.8 2.3 -3.4
v 5.9 2.3 -3.4
v 6.9 2.3 -3.4
v 5.8 2.3 -3.5
v 6.9 2.3 -3.5
v 5.5 2.5 -1
v 6 2.5 -1
v 5.6 2.5 -1.1
v 5.9 2.5 -1.1
v 5.7 2.5 -1.2
v 5.9 2.5 -1.2
v 6 2.5 -3.2
v 7 2.5 -3.2
v 5.8 2.5 -3.3
v 5.9 2.5 -3.3
v 6.9 2.5 -3.3
v 7 2.5 -3.3
v 5.7 2.5 -3.4
v 5.8 2.5 -3.4
v 5.9 2.5 -3.4
v 5.8 2.5 -3.5
v 6.9 2.5 -3.5
v 5.6 2.5 -3.6
v 7 2.5 -3.6
v 5.5 2.5 -3.7
v 7 2.5 -3.7
v 5.7 2.2 -1.2
v 5.9 2.2 -1.2
v 5.8 2.2 -3.3
v 5.9 2.2 -3.3
v 6.9 2.2 -3.3
v 5.7 2.2 -3.4
v 5.8 2.2 -3.4
v 5.9 2.2 -3.4
v 5.8 2.2 -3.5
v 6.9 2.2 -3.5
v 5.7 2.4 -1.2
v 5.8 2.4 -1.2
v 5.8 2.4 -3.3
v 5.7 2.4 -3.4
v 5.8 2.4 -3.4
v 5.9 2.4 -3.4
v 6.9 2.4 -3.4
v 5.8 2.4 -3.5
v 6.9 2.4 -3.5
v 5.5 2.6 -1
v 6 2.6 -1
v 6 2.6 -3.2
v 7 2.6 -3.2
v 5.5 2.6 -3.7
v 7 2.6 -3.7

# faces
f 3/2/1 2/2/1 1/2/1
f 4/2/1 2/2/1 3/2/1
f 7/1/1 6/1/1 5/1/1
f 8/1/1 6/1/1 7/1/1
f 11/1/1 10/1/1 9/1/1
f 12/1/1 10/1/1 11/1/1
f 15/1/1 14/1/1 13/1/1
f 16/1/1 14/1/1 15/1/1
f 19/1/1 18/1/1 17/1/1
f 20/1/1 18/1/1 19/1/1
f 21/1/1 19/1/1 17/1/1
f 23/1/1 21/1/1 17/1/1
f 23/1/1 22/1/1 21/1/1
f 24/1/1 22/1/1 23/1/1
f 25/1/2 26/1/2 27/1/2
f 27/1/2 26/1/2 28/1/2
f 29/1/2 30/1/2 31/1/2
f 31/1/2 30/1/2 32/1/2
f 33/1/2 34/1/2 37/1/2
f 37/1/2 34/1/2 38/1/2
f 35/1/2 36/1/2 39/1/2
f 39/1/2 36/1/2 40/1/2
f 41/1/2 42/1/2 43/1/2
f 43/1/2 42/1/2 44/1/2
f 45/1/2 46/1/2 47/1/2
f 47/1/2 46/1/2 48/1/2
f 48/1/2 49/1/2 50/1/2
f 48/1/2 50/1/2 51/1/2
f 45/1/2 47/1/2 52/1/2
f 52/1/2 47/1/2 53/1/2
f 48/1/2 51/1/2 54/1/2
f 54/1/2 51/1/2 55/1/2
f 56/2/2 57/2/2 58/2/2
f 58/2/2 57/2/2 59/2/2
f 60/1/2 61/1/2 63/1/2
f 63/1/2 61/1/2 64/1/2
f 62/2/2 63/2/2 66/2/2
f 64/2/2 65/2/2 66/2/2
f 63/2/2 64/2/2 66/2/2
f 66/2/2 65/2/2 67/2/2
f 70/2/3 69/2/3 68/2/3
f 71/2/3 69/2/3 70/2/3
f 74/1/3 73/1/3 72/1/3
f 75/1/3 73/1/3 74/1/3
f 78/2/3 77/2/3 76/2/3
f 79/2/3 77/2/3 78/2/3
f 85/1/3 81/1/3 80/1/3
f 85/1/3 83/1/3 82/1/3
f 85/1/3 82/1/3 81/1/3
f 86/1/3 83/1/3 85/1/3
f 87/1/3 85/1/3 84/1/3
f 89/1/3 87/1/3 84/1/3
f 89/1/3 88/1/3 87/1/3
f 90/1/3 88/1/3 89/1/3
f 95/1/3 92/1/3 91/1/3
f 96/1/3 92/1/3 95/1/3
f 97/1/3 94/1/3 93/1/3
f 98/1/3 94/1/3 97/1/3
f 101/1/3 100/1/3 99/1/3
f 102/1/3 100/1/3 101/1/3
f 107/1/3 104/1/3 103/1/3
f 108/1/3 104/1/3 107/1/3
f 109/1/3 106/1/3 105/1/3
f 110/1/3 106/1/3 109/1/3
f 111/1/4 112/1/4 115/1/4
f 113/1/4 114/1/4 116/1/4
f 111/1/4 115/1/4 117/1/4
f 115/1/4 116/1/4 117/1/4
f 116/1/4 114/1/4 118/1/4
f 117/1/4 116/1/4 118/1/4
f 119/1/4 120/1/4 123/1/4
f 123/1/4 120/1/4 124/1/4
f 121/1/4 122/1/4 125/1/4
f 125/1/4 122/1/4 126/1/4
f 127/1/4 128/1/4 129/1/4
f 129/1/4 128/1/4 130/1/4
f 131/2/4 132/2/4 133/2/4
f 133/2/4 132/2/4 134/2/4
f 137/1/5 136/1/5 135/1/5
f 139/1/5 137/1/5 135/1/5
f 139/1/5 138/1/5 137/1/5
f 140/1/5 138/1/5 139/1/5
f 143/1/5 142/1/5 141/1/5
f 144/1/5 143/1/5 141/1/5
f 145/1/5 143/1/5 144/1/5
f 148/1/5 147/1/5 146/1/5
f 148/1/5 146/1/5 145/1/5
f 149/1/5 147/1/5 148/1/5
f 152/2/5 151/2/5 150/2/5
f 153/2/5 151/2/5 152/2/5
f 155/2/5 151/2/5 153/2/5
f 156/2/5 151/2/5 155/2/5
f 156/2/5 155/2/5 154/2/5
f 158/2/5 156/2/5 154/2/5
f 158/2/5 157/2/5 156/2/5
f 159/2/5 157/2/5 158/2/5
f 160/2/5 157/2/5 159/2/5
f 161/2/5 157/2/5 160/2/5
f 162/2/5 158/2/5 154/2/5
f 163/2/5 158/2/5 162/2/5
f 164/2/5 160/2/5 159/2/5
f 165/2/5 164/2/5 163/2/5
f 166/2/5 160/2/5 164/2/5
f 166/2/5 164/2/5 165/2/5
f 167/2/5 152/2/5 150/2/5
f 169/2/5 167/2/5 150/2/5
f 169/2/5 168/2/5 167/2/5
f 170/2/5 168/2/5 169/2/5
f 171/1/6 172/1/6 173/1/6
f 173/1/6 172/1/6 174/1/6
f 171/1/6 173/1/6 176/1/6
f 176/1/6 173/1/6 177/1/6
f 174/1/6 175/1/6 178/1/6
f 177/1/6 178/1/6 179/1/6
f 178/1/6 175/1/6 180/1/6
f 179/1/6 178/1/6 180/1/6
f 181/1/6 182/1/6 183/1/6
f 181/1/6 183/1/6 184/1/6
f 184/1/6 183/1/6 185/1/6
f 186/1/6 187/1/6 188/1/6
f 185/1/6 186/1/6 188/1/6
f 188/1/6 187/1/6 189/1/6
f 190/2/6 191/2/6 192/2/6
f 190/2/6 192/2/6 194/2/6
f 192/2/6 193/2/6 194/2/6
f 194/2/6 193/2/6 195/2/6
