# MagicaVoxel @ Ephtracy

# group
o 

# material
mtllib flower.mtl
usemtl palette

# normals
vn -1 0 0
vn 1 0 0
vn 0 0 1
vn 0 0 -1
vn 0 -1 0
vn 0 1 0

# texcoords
vt 0.00195313 0.5
vt 0.0566406 0.5
vt 0.0800781 0.5
vt 0.255859 0.5
vt 0.556641 0.5
vt 0.560547 0.5
vt 0.708984 0.5
vt 0.712891 0.5

# verts
v 0.2 2.6 -0.7
v 0.2 2.6 -1
v 0.2 2.7 -0.7
v 0.2 2.7 -1
v 0.2 3.4 -0.3
v 0.2 3.4 -0.7
v 0.2 3.4 -0.8
v 0.2 3.5 -0.3
v 0.2 3.5 -0.6
v 0.2 3.7 -0.3
v 0.2 3.7 -0.6
v 0.2 3.8 -0.3
v 0.2 3.8 -0.7
v 0.2 3.8 -0.8
v 0.3 2.3 -0.5
v 0.3 2.3 -1.2
v 0.3 2.4 -0.5
v 0.3 2.4 -1.2
v 0.3 3.3 -0.4
v 0.3 3.3 -0.8
v 0.3 3.4 -0.4
v 0.3 3.4 -0.7
v 0.3 3.4 -0.8
v 0.3 3.5 -0.4
v 0.3 3.5 -0.6
v 0.3 3.7 -0.4
v 0.3 3.7 -0.6
v 0.3 3.8 -0.4
v 0.3 3.8 -0.7
v 0.3 3.8 -0.8
v 0.3 3.9 -0.4
v 0.3 3.9 -0.8
v 0.4 2 -0.6
v 0.4 2 -1.1
v 0.4 2.1 -0.6
v 0.4 2.1 -1.1
v 0.4 2.3 -0.6
v 0.4 2.3 -1.1
v 0.4 2.6 -0.6
v 0.4 2.6 -0.7
v 0.4 2.6 -1
v 0.4 2.6 -1.1
v 0.4 2.7 -0.6
v 0.4 2.7 -0.7
v 0.4 2.7 -1
v 0.4 2.7 -1.1
v 0.4 3.4 -0.8
v 0.4 3.4 -0.9
v 0.4 3.8 -0.8
v 0.4 3.8 -0.9
v 0.5 3 -0.8
v 0.5 3 -0.9
v 0.5 3.3 -0.8
v 0.5 3.4 -0.8
v 0.5 3.4 -0.9
v 0.6 2.3 -0.8
v 0.6 2.3 -0.9
v 0.6 2.6 -0.8
v 0.6 2.6 -0.9
v 0.7 2.7 -0.8
v 0.7 2.7 -0.9
v 0.7 3 -0.8
v 0.7 3 -0.9
v 0.8 2.3 -0.7
v 0.8 2.3 -1
v 0.8 2.4 -0.7
v 0.8 2.4 -1
v 0.9 3 -0.6
v 0.9 3 -0.7
v 0.9 3 -0.8
v 0.9 3 -0.9
v 0.9 3 -1
v 0.9 3 -1.1
v 0.9 3.1 -0.6
v 0.9 3.1 -0.7
v 0.9 3.1 -0.8
v 0.9 3.1 -0.9
v 0.9 3.1 -1
v 0.9 3.1 -1.1
v 0.5 2.3 -0.7
v 0.5 2.3 -1
v 0.5 2.4 -0.7
v 0.5 2.4 -1
v 0.6 2.6 -0.6
v 0.6 2.6 -0.7
v 0.6 2.6 -0.8
v 0.6 2.6 -0.9
v 0.6 2.6 -1
v 0.6 2.6 -1.1
v 0.6 2.7 -0.6
v 0.6 2.7 -0.7
v 0.6 2.7 -0.8
v 0.6 2.7 -0.9
v 0.6 2.7 -1
v 0.6 2.7 -1.1
v 0.6 3.1 -0.8
v 0.6 3.1 -0.9
v 0.6 3.3 -0.8
v 0.6 3.4 -0.8
v 0.6 3.4 -0.9
v 0.7 2.3 -0.8
v 0.7 2.3 -0.9
v 0.7 2.6 -0.8
v 0.7 2.6 -0.9
v 0.7 3.3 -0.4
v 0.7 3.3 -0.8
v 0.7 3.4 -0.4
v 0.7 3.4 -0.7
v 0.7 3.4 -0.8
v 0.7 3.4 -0.9
v 0.7 3.5 -0.4
v 0.7 3.5 -0.6
v 0.7 3.7 -0.4
v 0.7 3.7 -0.6
v 0.7 3.8 -0.4
v 0.7 3.8 -0.7
v 0.7 3.8 -0.8
v 0.7 3.8 -0.9
v 0.7 3.9 -0.4
v 0.7 3.9 -0.8
v 0.8 2.6 -0.8
v 0.8 2.6 -0.9
v 0.8 3 -0.8
v 0.8 3 -0.9
v 0.8 3.4 -0.3
v 0.8 3.4 -0.7
v 0.8 3.4 -0.8
v 0.8 3.5 -0.3
v 0.8 3.5 -0.6
v 0.8 3.7 -0.3
v 0.8 3.7 -0.6
v 0.8 3.8 -0.3
v 0.8 3.8 -0.7
v 0.8 3.8 -0.8
v 0.9 2 -0.6
v 0.9 2 -1.1
v 0.9 2.1 -0.6
v 0.9 2.1 -1.1
v 0.9 2.3 -0.6
v 0.9 2.3 -1.1
v 1 2.3 -0.5
v 1 2.3 -1.2
v 1 2.4 -0.5
v 1 2.4 -1.2
v 1.1 3 -0.6
v 1.1 3 -0.7
v 1.1 3 -1
v 1.1 3 -1.1
v 1.1 3.1 -0.6
v 1.1 3.1 -0.7
v 1.1 3.1 -1
v 1.1 3.1 -1.1
v 1.3 3 -0.7
v 1.3 3 -1
v 1.3 3.1 -0.7
v 1.3 3.1 -1
v 0.2 3.4 -0.3
v 0.2 3.5 -0.3
v 0.2 3.7 -0.3
v 0.2 3.8 -0.3
v 0.8 3.4 -0.3
v 0.8 3.5 -0.3
v 0.8 3.7 -0.3
v 0.8 3.8 -0.3
v 0.3 3.3 -0.4
v 0.3 3.4 -0.4
v 0.3 3.5 -0.4
v 0.3 3.7 -0.4
v 0.3 3.8 -0.4
v 0.3 3.9 -0.4
v 0.7 3.3 -0.4
v 0.7 3.4 -0.4
v 0.7 3.5 -0.4
v 0.7 3.7 -0.4
v 0.7 3.8 -0.4
v 0.7 3.9 -0.4
v 0.3 2.3 -0.5
v 0.3 2.4 -0.5
v 1 2.3 -0.5
v 1 2.4 -0.5
v 0.2 3.5 -0.6
v 0.2 3.7 -0.6
v 0.3 3.5 -0.6
v 0.3 3.7 -0.6
v 0.4 2 -0.6
v 0.4 2.1 -0.6
v 0.4 2.3 -0.6
v 0.4 2.6 -0.6
v 0.4 2.7 -0.6
v 0.6 2.6 -0.6
v 0.6 2.7 -0.6
v 0.7 3.5 -0.6
v 0.7 3.7 -0.6
v 0.8 3.5 -0.6
v 0.8 3.7 -0.6
v 0.9 2 -0.6
v 0.9 2.1 -0.6
v 0.9 2.3 -0.6
v 0.9 3 -0.6
v 0.9 3.1 -0.6
v 1.1 3 -0.6
v 1.1 3.1 -0.6
v 0.2 2.6 -0.7
v 0.2 2.7 -0.7
v 0.4 2.6 -0.7
v 0.4 2.7 -0.7
v 1.1 3 -0.7
v 1.1 3.1 -0.7
v 1.3 3 -0.7
v 1.3 3.1 -0.7
v 0.5 3 -0.8
v 0.5 3.3 -0.8
v 0.6 2.3 -0.8
v 0.6 2.6 -0.8
v 0.6 2.7 -0.8
v 0.6 3.1 -0.8
v 0.6 3.3 -0.8
v 0.7 2.3 -0.8
v 0.7 2.6 -0.8
v 0.7 2.7 -0.8
v 0.7 3 -0.8
v 0.8 2.6 -0.8
v 0.8 3 -0.8
v 0.9 3 -0.8
v 0.9 3.1 -0.8
v 0.5 2.3 -1
v 0.5 2.4 -1
v 0.8 2.3 -1
v 0.8 2.4 -1
v 0.5 2.3 -0.7
v 0.5 2.4 -0.7
v 0.8 2.3 -0.7
v 0.8 2.4 -0.7
v 0.2 3.4 -0.8
v 0.2 3.8 -0.8
v 0.3 3.3 -0.8
v 0.3 3.4 -0.8
v 0.3 3.8 -0.8
v 0.3 3.9 -0.8
v 0.4 3.4 -0.8
v 0.4 3.8 -0.8
v 0.5 3.3 -0.8
v 0.5 3.4 -0.8
v 0.6 3.3 -0.8
v 0.6 3.4 -0.8
v 0.7 3.3 -0.8
v 0.7 3.4 -0.8
v 0.7 3.8 -0.8
v 0.7 3.9 -0.8
v 0.8 3.4 -0.8
v 0.8 3.8 -0.8
v 0.4 3.4 -0.9
v 0.4 3.8 -0.9
v 0.5 3 -0.9
v 0.5 3.4 -0.9
v 0.6 2.3 -0.9
v 0.6 2.6 -0.9
v 0.6 2.7 -0.9
v 0.6 3.1 -0.9
v 0.6 3.4 -0.9
v 0.7 2.3 -0.9
v 0.7 2.6 -0.9
v 0.7 2.7 -0.9
v 0.7 3 -0.9
v 0.7 3.4 -0.9
v 0.7 3.8 -0.9
v 0.8 2.6 -0.9
v 0.8 3 -0.9
v 0.9 3 -0.9
v 0.9 3.1 -0.9
v 0.2 2.6 -1
v 0.2 2.7 -1
v 0.4 2.6 -1
v 0.4 2.7 -1
v 1.1 3 -1
v 1.1 3.1 -1
v 1.3 3 -1
v 1.3 3.1 -1
v 0.4 2 -1.1
v 0.4 2.1 -1.1
v 0.4 2.3 -1.1
v 0.4 2.6 -1.1
v 0.4 2.7 -1.1
v 0.6 2.6 -1.1
v 0.6 2.7 -1.1
v 0.9 2 -1.1
v 0.9 2.1 -1.1
v 0.9 2.3 -1.1
v 0.9 3 -1.1
v 0.9 3.1 -1.1
v 1.1 3 -1.1
v 1.1 3.1 -1.1
v 0.3 2.3 -1.2
v 0.3 2.4 -1.2
v 1 2.3 -1.2
v 1 2.4 -1.2
v 0.4 2 -0.6
v 0.9 2 -0.6
v 0.5 2 -0.7
v 0.8 2 -0.7
v 0.5 2 -1
v 0.8 2 -1
v 0.4 2 -1.1
v 0.9 2 -1.1
v 0.3 2.3 -0.5
v 1 2.3 -0.5
v 0.4 2.3 -0.6
v 0.9 2.3 -0.6
v 0.4 2.3 -1.1
v 0.9 2.3 -1.1
v 0.3 2.3 -1.2
v 1 2.3 -1.2
v 0.4 2.6 -0.6
v 0.6 2.6 -0.6
v 0.2 2.6 -0.7
v 0.4 2.6 -0.7
v 0.5 2.6 -0.7
v 0.6 2.6 -0.7
v 0.4 2.6 -0.8
v 0.5 2.6 -0.8
v 0.6 2.6 -0.8
v 0.7 2.6 -0.8
v 0.8 2.6 -0.8
v 0.4 2.6 -0.9
v 0.5 2.6 -0.9
v 0.6 2.6 -0.9
v 0.7 2.6 -0.9
v 0.8 2.6 -0.9
v 0.2 2.6 -1
v 0.4 2.6 -1
v 0.5 2.6 -1
v 0.6 2.6 -1
v 0.4 2.6 -1.1
v 0.6 2.6 -1.1
v 0.9 3 -0.6
v 1.1 3 -0.6
v 0.9 3 -0.7
v 1 3 -0.7
v 1.1 3 -0.7
v 1.3 3 -0.7
v 0.5 3 -0.8
v 0.7 3 -0.8
v 0.8 3 -0.8
v 0.9 3 -0.8
v 1 3 -0.8
v 1.1 3 -0.8
v 0.5 3 -0.9
v 0.7 3 -0.9
v 0.8 3 -0.9
v 0.9 3 -0.9
v 1 3 -0.9
v 1.1 3 -0.9
v 0.9 3 -1
v 1 3 -1
v 1.1 3 -1
v 1.3 3 -1
v 0.9 3 -1.1
v 1.1 3 -1.1
v 0.3 3.3 -0.4
v 0.7 3.3 -0.4
v 0.3 3.3 -0.8
v 0.5 3.3 -0.8
v 0.6 3.3 -0.8
v 0.7 3.3 -0.8
v 0.2 3.4 -0.3
v 0.8 3.4 -0.3
v 0.3 3.4 -0.4
v 0.7 3.4 -0.4
v 0.2 3.4 -0.7
v 0.3 3.4 -0.7
v 0.7 3.4 -0.7
v 0.8 3.4 -0.7
v 0.2 3.4 -0.8
v 0.3 3.4 -0.8
v 0.4 3.4 -0.8
v 0.5 3.4 -0.8
v 0.6 3.4 -0.8
v 0.7 3.4 -0.8
v 0.8 3.4 -0.8
v 0.4 3.4 -0.9
v 0.5 3.4 -0.9
v 0.6 3.4 -0.9
v 0.7 3.4 -0.9
v 0.2 3.7 -0.3
v 0.8 3.7 -0.3
v 0.3 3.7 -0.4
v 0.7 3.7 -0.4
v 0.2 3.7 -0.6
v 0.3 3.7 -0.6
v 0.7 3.7 -0.6
v 0.8 3.7 -0.6
v 0.5 2.3 -0.7
v 0.8 2.3 -0.7
v 0.6 2.3 -0.8
v 0.7 2.3 -0.8
v 0.6 2.3 -0.9
v 0.7 2.3 -0.9
v 0.5 2.3 -1
v 0.8 2.3 -1
v 0.3 2.4 -0.5
v 1 2.4 -0.5
v 0.4 2.4 -0.6
v 0.9 2.4 -0.6
v 0.5 2.4 -0.7
v 0.8 2.4 -0.7
v 0.5 2.4 -1
v 0.8 2.4 -1
v 0.4 2.4 -1.1
v 0.9 2.4 -1.1
v 0.3 2.4 -1.2
v 1 2.4 -1.2
v 0.4 2.7 -0.6
v 0.6 2.7 -0.6
v 0.2 2.7 -0.7
v 0.4 2.7 -0.7
v 0.5 2.7 -0.7
v 0.6 2.7 -0.7
v 0.4 2.7 -0.8
v 0.5 2.7 -0.8
v 0.6 2.7 -0.8
v 0.7 2.7 -0.8
v 0.4 2.7 -0.9
v 0.5 2.7 -0.9
v 0.6 2.7 -0.9
v 0.7 2.7 -0.9
v 0.2 2.7 -1
v 0.4 2.7 -1
v 0.5 2.7 -1
v 0.6 2.7 -1
v 0.4 2.7 -1.1
v 0.6 2.7 -1.1
v 0.9 3.1 -0.6
v 1.1 3.1 -0.6
v 0.9 3.1 -0.7
v 1 3.1 -0.7
v 1.1 3.1 -0.7
v 1.3 3.1 -0.7
v 0.6 3.1 -0.8
v 0.9 3.1 -0.8
v 1 3.1 -0.8
v 1.1 3.1 -0.8
v 0.6 3.1 -0.9
v 0.9 3.1 -0.9
v 1 3.1 -0.9
v 1.1 3.1 -0.9
v 0.9 3.1 -1
v 1 3.1 -1
v 1.1 3.1 -1
v 1.3 3.1 -1
v 0.9 3.1 -1.1
v 1.1 3.1 -1.1
v 0.2 3.5 -0.3
v 0.8 3.5 -0.3
v 0.3 3.5 -0.4
v 0.7 3.5 -0.4
v 0.2 3.5 -0.6
v 0.3 3.5 -0.6
v 0.7 3.5 -0.6
v 0.8 3.5 -0.6
v 0.2 3.8 -0.3
v 0.8 3.8 -0.3
v 0.3 3.8 -0.4
v 0.7 3.8 -0.4
v 0.2 3.8 -0.7
v 0.3 3.8 -0.7
v 0.7 3.8 -0.7
v 0.8 3.8 -0.7
v 0.2 3.8 -0.8
v 0.3 3.8 -0.8
v 0.4 3.8 -0.8
v 0.7 3.8 -0.8
v 0.8 3.8 -0.8
v 0.4 3.8 -0.9
v 0.7 3.8 -0.9
v 0.3 3.9 -0.4
v 0.7 3.9 -0.4
v 0.3 3.9 -0.8
v 0.7 3.9 -0.8

# faces
f 3/5/1 2/5/1 1/5/1
f 4/5/1 2/5/1 3/5/1
f 8/1/1 6/1/1 5/1/1
f 9/1/1 6/1/1 8/1/1
f 11/1/1 6/1/1 9/1/1
f 12/1/1 11/1/1 10/1/1
f 13/2/1 7/2/1 6/2/1
f 13/1/1 11/1/1 12/1/1
f 13/1/1 6/1/1 11/1/1
f 14/2/1 7/2/1 13/2/1
f 17/7/1 16/7/1 15/7/1
f 18/7/1 16/7/1 17/7/1
f 21/2/1 20/2/1 19/2/1
f 22/2/1 20/2/1 21/2/1
f 23/2/1 20/2/1 22/2/1
f 26/2/1 25/2/1 24/2/1
f 27/2/1 25/2/1 26/2/1
f 31/2/1 29/2/1 28/2/1
f 31/2/1 30/2/1 29/2/1
f 32/2/1 30/2/1 31/2/1
f 35/7/1 34/7/1 33/7/1
f 36/7/1 34/7/1 35/7/1
f 37/8/1 36/8/1 35/8/1
f 38/8/1 36/8/1 37/8/1
f 43/5/1 40/5/1 39/5/1
f 44/5/1 40/5/1 43/5/1
f 45/5/1 42/5/1 41/5/1
f 46/5/1 42/5/1 45/5/1
f 49/5/1 48/5/1 47/5/1
f 50/5/1 48/5/1 49/5/1
f 53/5/1 52/5/1 51/5/1
f 54/5/1 52/5/1 53/5/1
f 55/5/1 52/5/1 54/5/1
f 58/5/1 57/5/1 56/5/1
f 59/5/1 57/5/1 58/5/1
f 62/5/1 61/5/1 60/5/1
f 63/5/1 61/5/1 62/5/1
f 66/8/1 65/8/1 64/8/1
f 67/8/1 65/8/1 66/8/1
f 74/5/1 69/5/1 68/5/1
f 75/6/1 70/6/1 69/6/1
f 75/5/1 69/5/1 74/5/1
f 76/6/1 70/6/1 75/6/1
f 77/6/1 72/6/1 71/6/1
f 78/5/1 73/5/1 72/5/1
f 78/6/1 72/6/1 77/6/1
f 79/5/1 73/5/1 78/5/1
f 80/8/2 81/8/2 82/8/2
f 82/8/2 81/8/2 83/8/2
f 84/5/2 85/5/2 90/5/2
f 85/6/2 86/6/2 91/6/2
f 90/5/2 85/5/2 91/5/2
f 91/6/2 86/6/2 92/6/2
f 87/6/2 88/6/2 93/6/2
f 88/5/2 89/5/2 94/5/2
f 93/6/2 88/6/2 94/6/2
f 94/5/2 89/5/2 95/5/2
f 96/5/2 97/5/2 98/5/2
f 98/5/2 97/5/2 99/5/2
f 99/5/2 97/5/2 100/5/2
f 101/5/2 102/5/2 103/5/2
f 103/5/2 102/5/2 104/5/2
f 105/2/2 106/2/2 107/2/2
f 107/2/2 106/2/2 108/2/2
f 108/2/2 106/2/2 109/2/2
f 111/2/2 112/2/2 113/2/2
f 113/2/2 112/2/2 114/2/2
f 109/5/2 110/5/2 117/5/2
f 117/5/2 110/5/2 118/5/2
f 115/2/2 116/2/2 119/2/2
f 116/2/2 117/2/2 119/2/2
f 119/2/2 117/2/2 120/2/2
f 121/5/2 122/5/2 123/5/2
f 123/5/2 122/5/2 124/5/2
f 125/1/2 126/1/2 128/1/2
f 128/1/2 126/1/2 129/1/2
f 129/1/2 126/1/2 131/1/2
f 130/1/2 131/1/2 132/1/2
f 126/2/2 127/2/2 133/2/2
f 132/1/2 131/1/2 133/1/2
f 131/1/2 126/1/2 133/1/2
f 133/2/2 127/2/2 134/2/2
f 135/7/2 136/7/2 137/7/2
f 137/7/2 136/7/2 138/7/2
f 137/8/2 138/8/2 139/8/2
f 139/8/2 138/8/2 140/8/2
f 141/7/2 142/7/2 143/7/2
f 143/7/2 142/7/2 144/7/2
f 145/5/2 146/5/2 149/5/2
f 149/5/2 146/5/2 150/5/2
f 147/5/2 148/5/2 151/5/2
f 151/5/2 148/5/2 152/5/2
f 153/5/2 154/5/2 155/5/2
f 155/5/2 154/5/2 156/5/2
f 161/1/3 158/1/3 157/1/3
f 162/1/3 158/1/3 161/1/3
f 163/1/3 160/1/3 159/1/3
f 164/1/3 160/1/3 163/1/3
f 171/2/3 166/2/3 165/2/3
f 172/2/3 166/2/3 171/2/3
f 173/2/3 168/2/3 167/2/3
f 174/2/3 168/2/3 173/2/3
f 175/2/3 170/2/3 169/2/3
f 176/2/3 170/2/3 175/2/3
f 179/7/3 178/7/3 177/7/3
f 180/7/3 178/7/3 179/7/3
f 183/1/3 182/1/3 181/1/3
f 184/1/3 182/1/3 183/1/3
f 190/5/3 189/5/3 188/5/3
f 191/5/3 189/5/3 190/5/3
f 194/1/3 193/1/3 192/1/3
f 195/1/3 193/1/3 194/1/3
f 196/7/3 186/7/3 185/7/3
f 197/8/3 187/8/3 186/8/3
f 197/7/3 186/7/3 196/7/3
f 198/8/3 187/8/3 197/8/3
f 201/5/3 200/5/3 199/5/3
f 202/5/3 200/5/3 201/5/3
f 205/5/3 204/5/3 203/5/3
f 206/5/3 204/5/3 205/5/3
f 209/5/3 208/5/3 207/5/3
f 210/5/3 208/5/3 209/5/3
f 216/5/3 212/5/3 211/5/3
f 217/5/3 212/5/3 216/5/3
f 218/5/3 215/5/3 214/5/3
f 218/5/3 214/5/3 213/5/3
f 219/5/3 215/5/3 218/5/3
f 220/5/3 215/5/3 219/5/3
f 221/5/3 216/5/3 211/5/3
f 222/5/3 220/5/3 219/5/3
f 222/5/3 221/5/3 220/5/3
f 223/5/3 216/5/3 221/5/3
f 223/5/3 221/5/3 222/5/3
f 224/5/3 216/5/3 223/5/3
f 225/5/3 216/5/3 224/5/3
f 228/8/3 227/8/3 226/8/3
f 229/8/3 227/8/3 228/8/3
f 230/8/4 231/8/4 232/8/4
f 232/8/4 231/8/4 233/8/4
f 234/2/4 235/2/4 237/2/4
f 237/2/4 235/2/4 238/2/4
f 236/2/4 237/2/4 240/2/4
f 238/2/4 239/2/4 240/2/4
f 237/2/4 238/2/4 240/2/4
f 240/2/4 239/2/4 241/2/4
f 236/2/4 240/2/4 242/2/4
f 242/2/4 240/2/4 243/2/4
f 244/2/4 245/2/4 246/2/4
f 246/2/4 245/2/4 247/2/4
f 241/2/4 239/2/4 248/2/4
f 248/2/4 239/2/4 249/2/4
f 247/2/4 248/2/4 250/2/4
f 250/2/4 248/2/4 251/2/4
f 252/5/4 253/5/4 255/5/4
f 254/5/4 255/5/4 259/5/4
f 255/5/4 253/5/4 260/5/4
f 259/5/4 255/5/4 260/5/4
f 257/5/4 258/5/4 261/5/4
f 256/5/4 257/5/4 261/5/4
f 261/5/4 258/5/4 262/5/4
f 262/5/4 258/5/4 263/5/4
f 254/5/4 259/5/4 264/5/4
f 260/5/4 253/5/4 265/5/4
f 265/5/4 253/5/4 266/5/4
f 262/5/4 263/5/4 267/5/4
f 263/5/4 264/5/4 267/5/4
f 264/5/4 259/5/4 268/5/4
f 267/5/4 264/5/4 268/5/4
f 268/5/4 259/5/4 269/5/4
f 269/5/4 259/5/4 270/5/4
f 271/5/4 272/5/4 273/5/4
f 273/5/4 272/5/4 274/5/4
f 275/5/4 276/5/4 277/5/4
f 277/5/4 276/5/4 278/5/4
f 282/5/4 283/5/4 284/5/4
f 284/5/4 283/5/4 285/5/4
f 279/7/4 280/7/4 286/7/4
f 280/8/4 281/8/4 287/8/4
f 286/7/4 280/7/4 287/7/4
f 287/8/4 281/8/4 288/8/4
f 289/5/4 290/5/4 291/5/4
f 291/5/4 290/5/4 292/5/4
f 293/7/4 294/7/4 295/7/4
f 295/7/4 294/7/4 296/7/4
f 299/7/5 298/7/5 297/7/5
f 300/7/5 298/7/5 299/7/5
f 301/7/5 299/7/5 297/7/5
f 301/4/5 300/4/5 299/4/5
f 302/7/5 298/7/5 300/7/5
f 302/4/5 300/4/5 301/4/5
f 303/7/5 301/7/5 297/7/5
f 303/7/5 302/7/5 301/7/5
f 304/7/5 298/7/5 302/7/5
f 304/7/5 302/7/5 303/7/5
f 307/7/5 306/7/5 305/7/5
f 308/7/5 306/7/5 307/7/5
f 309/7/5 307/7/5 305/7/5
f 310/7/5 306/7/5 308/7/5
f 311/7/5 309/7/5 305/7/5
f 311/7/5 310/7/5 309/7/5
f 312/7/5 306/7/5 310/7/5
f 312/7/5 310/7/5 311/7/5
f 316/5/5 314/5/5 313/5/5
f 317/5/5 314/5/5 316/5/5
f 318/5/5 314/5/5 317/5/5
f 319/5/5 316/5/5 315/5/5
f 319/5/5 317/5/5 316/5/5
f 320/6/5 318/6/5 317/6/5
f 320/5/5 317/5/5 319/5/5
f 321/6/5 318/6/5 320/6/5
f 324/6/5 321/6/5 320/6/5
f 324/5/5 319/5/5 315/5/5
f 324/6/5 320/6/5 319/6/5
f 325/6/5 321/6/5 324/6/5
f 326/6/5 321/6/5 325/6/5
f 327/5/5 323/5/5 322/5/5
f 328/5/5 323/5/5 327/5/5
f 329/5/5 324/5/5 315/5/5
f 329/5/5 325/5/5 324/5/5
f 330/5/5 325/5/5 329/5/5
f 331/6/5 326/6/5 325/6/5
f 331/5/5 325/5/5 330/5/5
f 332/6/5 326/6/5 331/6/5
f 333/5/5 331/5/5 330/5/5
f 333/5/5 332/5/5 331/5/5
f 334/5/5 332/5/5 333/5/5
f 337/5/5 336/5/5 335/5/5
f 338/5/5 336/5/5 337/5/5
f 339/5/5 336/5/5 338/5/5
f 344/6/5 338/6/5 337/6/5
f 345/5/5 339/5/5 338/5/5
f 345/5/5 340/5/5 339/5/5
f 345/6/5 338/6/5 344/6/5
f 346/5/5 340/5/5 345/5/5
f 347/5/5 342/5/5 341/5/5
f 348/5/5 342/5/5 347/5/5
f 349/5/5 344/5/5 343/5/5
f 350/6/5 345/6/5 344/6/5
f 350/5/5 344/5/5 349/5/5
f 350/6/5 346/6/5 345/6/5
f 351/6/5 346/6/5 350/6/5
f 352/5/5 340/5/5 346/5/5
f 352/6/5 346/6/5 351/6/5
f 353/6/5 351/6/5 350/6/5
f 354/5/5 352/5/5 351/5/5
f 354/6/5 351/6/5 353/6/5
f 355/5/5 340/5/5 352/5/5
f 355/5/5 352/5/5 354/5/5
f 356/5/5 340/5/5 355/5/5
f 357/5/5 354/5/5 353/5/5
f 357/5/5 355/5/5 354/5/5
f 358/5/5 355/5/5 357/5/5
f 361/2/5 360/2/5 359/2/5
f 362/2/5 360/2/5 361/2/5
f 363/2/5 360/2/5 362/2/5
f 364/2/5 360/2/5 363/2/5
f 367/1/5 366/1/5 365/1/5
f 368/1/5 366/1/5 367/1/5
f 369/1/5 367/1/5 365/1/5
f 370/1/5 367/1/5 369/1/5
f 371/1/5 366/1/5 368/1/5
f 372/1/5 366/1/5 371/1/5
f 373/2/5 370/2/5 369/2/5
f 374/2/5 370/2/5 373/2/5
f 378/2/5 372/2/5 371/2/5
f 379/2/5 372/2/5 378/2/5
f 380/5/5 376/5/5 375/5/5
f 381/5/5 376/5/5 380/5/5
f 382/5/5 378/5/5 377/5/5
f 383/5/5 378/5/5 382/5/5
f 386/1/5 385/1/5 384/1/5
f 387/1/5 385/1/5 386/1/5
f 388/1/5 386/1/5 384/1/5
f 389/1/5 386/1/5 388/1/5
f 390/1/5 385/1/5 387/1/5
f 391/1/5 385/1/5 390/1/5
f 392/4/6 393/4/6 394/4/6
f 394/4/6 393/4/6 395/4/6
f 392/4/6 394/4/6 396/4/6
f 395/4/6 393/4/6 397/4/6
f 392/4/6 396/4/6 398/4/6
f 396/4/6 397/4/6 398/4/6
f 397/4/6 393/4/6 399/4/6
f 398/4/6 397/4/6 399/4/6
f 400/7/6 401/7/6 402/7/6
f 402/7/6 401/7/6 403/7/6
f 402/8/6 403/8/6 404/8/6
f 404/8/6 403/8/6 405/8/6
f 402/8/6 404/8/6 406/8/6
f 405/8/6 403/8/6 407/8/6
f 400/7/6 402/7/6 408/7/6
f 406/8/6 407/8/6 408/8/6
f 402/8/6 406/8/6 408/8/6
f 407/8/6 403/8/6 409/8/6
f 408/8/6 407/8/6 409/8/6
f 403/7/6 401/7/6 409/7/6
f 400/7/6 408/7/6 410/7/6
f 408/7/6 409/7/6 410/7/6
f 409/7/6 401/7/6 411/7/6
f 410/7/6 409/7/6 411/7/6
f 412/5/6 413/5/6 415/5/6
f 415/5/6 413/5/6 416/5/6
f 416/5/6 413/5/6 417/5/6
f 414/5/6 415/5/6 418/5/6
f 415/5/6 416/5/6 418/5/6
f 416/6/6 417/6/6 419/6/6
f 418/5/6 416/5/6 419/5/6
f 419/6/6 417/6/6 420/6/6
f 419/6/6 420/6/6 422/6/6
f 414/5/6 418/5/6 422/5/6
f 418/6/6 419/6/6 422/6/6
f 422/6/6 420/6/6 423/6/6
f 420/5/6 421/5/6 424/5/6
f 423/6/6 420/6/6 424/6/6
f 424/5/6 421/5/6 425/5/6
f 422/5/6 423/5/6 426/5/6
f 414/5/6 422/5/6 426/5/6
f 426/5/6 423/5/6 427/5/6
f 423/6/6 424/6/6 428/6/6
f 427/5/6 423/5/6 428/5/6
f 428/6/6 424/6/6 429/6/6
f 427/5/6 428/5/6 430/5/6
f 428/5/6 429/5/6 430/5/6
f 430/5/6 429/5/6 431/5/6
f 432/5/6 433/5/6 434/5/6
f 434/5/6 433/5/6 435/5/6
f 435/5/6 433/5/6 436/5/6
f 434/6/6 435/6/6 439/6/6
f 436/5/6 437/5/6 440/5/6
f 435/5/6 436/5/6 440/5/6
f 439/6/6 435/6/6 440/6/6
f 440/5/6 437/5/6 441/5/6
f 438/5/6 439/5/6 442/5/6
f 439/6/6 440/6/6 443/6/6
f 442/5/6 439/5/6 443/5/6
f 440/6/6 441/6/6 443/6/6
f 443/6/6 441/6/6 444/6/6
f 441/5/6 437/5/6 445/5/6
f 444/6/6 441/6/6 445/6/6
f 443/6/6 444/6/6 446/6/6
f 444/5/6 445/5/6 447/5/6
f 446/6/6 444/6/6 447/6/6
f 445/5/6 437/5/6 448/5/6
f 447/5/6 445/5/6 448/5/6
f 448/5/6 437/5/6 449/5/6
f 446/5/6 447/5/6 450/5/6
f 447/5/6 448/5/6 450/5/6
f 450/5/6 448/5/6 451/5/6
f 452/1/6 453/1/6 454/1/6
f 454/1/6 453/1/6 455/1/6
f 452/1/6 454/1/6 456/1/6
f 456/1/6 454/1/6 457/1/6
f 455/1/6 453/1/6 458/1/6
f 458/1/6 453/1/6 459/1/6
f 460/1/6 461/1/6 462/1/6
f 462/1/6 461/1/6 463/1/6
f 460/1/6 462/1/6 464/1/6
f 464/1/6 462/1/6 465/1/6
f 463/1/6 461/1/6 466/1/6
f 466/1/6 461/1/6 467/1/6
f 464/2/6 465/2/6 468/2/6
f 468/2/6 465/2/6 469/2/6
f 466/2/6 467/2/6 471/2/6
f 471/2/6 467/2/6 472/2/6
f 470/5/6 471/5/6 473/5/6
f 473/5/6 471/5/6 474/5/6
f 475/2/6 476/2/6 477/2/6
f 477/2/6 476/2/6 478/2/6
