# MagicaVoxel @ Ephtracy

# group
o 

# material
mtllib stool.mtl
usemtl palette

# normals
vn -1 0 0
vn 1 0 0
vn 0 0 1
vn 0 0 -1
vn 0 -1 0
vn 0 1 0

# texcoords
vt 0.779297 0.5
vt 0.904297 0.5

# verts
v 4.9 2.4 -1.1
v 4.9 2.4 -1.4
v 4.9 2.4 -1.8
v 4.9 2.4 -2.1
v 4.9 2.4 -2.6
v 4.9 2.4 -2.9
v 4.9 2.4 -3.3
v 4.9 2.4 -3.6
v 4.9 2.5 -1.1
v 4.9 2.5 -1.4
v 4.9 2.5 -1.8
v 4.9 2.5 -2.1
v 4.9 2.5 -2.6
v 4.9 2.5 -2.9
v 4.9 2.5 -3.3
v 4.9 2.5 -3.6
v 5 2 -1
v 5 2 -1.1
v 5 2 -1.4
v 5 2 -1.5
v 5 2 -1.7
v 5 2 -1.8
v 5 2 -2.1
v 5 2 -2.2
v 5 2 -2.5
v 5 2 -2.6
v 5 2 -2.9
v 5 2 -3
v 5 2 -3.2
v 5 2 -3.3
v 5 2 -3.6
v 5 2 -3.7
v 5 2.2 -1
v 5 2.2 -1.1
v 5 2.2 -1.2
v 5 2.2 -1.3
v 5 2.2 -1.4
v 5 2.2 -1.5
v 5 2.2 -1.7
v 5 2.2 -1.8
v 5 2.2 -1.9
v 5 2.2 -2
v 5 2.2 -2.1
v 5 2.2 -2.2
v 5 2.2 -2.5
v 5 2.2 -2.6
v 5 2.2 -2.7
v 5 2.2 -2.8
v 5 2.2 -2.9
v 5 2.2 -3
v 5 2.2 -3.2
v 5 2.2 -3.3
v 5 2.2 -3.4
v 5 2.2 -3.5
v 5 2.2 -3.6
v 5 2.2 -3.7
v 5 2.3 -1.2
v 5 2.3 -1.3
v 5 2.3 -1.9
v 5 2.3 -2
v 5 2.3 -2.7
v 5 2.3 -2.8
v 5 2.3 -3.4
v 5 2.3 -3.5
v 5 2.4 -1
v 5 2.4 -1.1
v 5 2.4 -1.4
v 5 2.4 -1.5
v 5 2.4 -1.7
v 5 2.4 -1.8
v 5 2.4 -2.1
v 5 2.4 -2.2
v 5 2.4 -2.5
v 5 2.4 -2.6
v 5 2.4 -2.9
v 5 2.4 -3
v 5 2.4 -3.2
v 5 2.4 -3.3
v 5 2.4 -3.6
v 5 2.4 -3.7
v 5 2.5 -1
v 5 2.5 -1.1
v 5 2.5 -1.4
v 5 2.5 -1.5
v 5 2.5 -1.7
v 5 2.5 -1.8
v 5 2.5 -2.1
v 5 2.5 -2.2
v 5 2.5 -2.5
v 5 2.5 -2.6
v 5 2.5 -2.9
v 5 2.5 -3
v 5 2.5 -3.2
v 5 2.5 -3.3
v 5 2.5 -3.6
v 5 2.5 -3.7
v 5.2 2 -1
v 5.2 2 -1.1
v 5.2 2 -1.4
v 5.2 2 -1.5
v 5.2 2 -1.7
v 5.2 2 -1.8
v 5.2 2 -2.1
v 5.2 2 -2.2
v 5.2 2 -2.5
v 5.2 2 -2.6
v 5.2 2 -2.9
v 5.2 2 -3
v 5.2 2 -3.2
v 5.2 2 -3.3
v 5.2 2 -3.6
v 5.2 2 -3.7
v 5.2 2.2 -1
v 5.2 2.2 -1.1
v 5.2 2.2 -1.2
v 5.2 2.2 -1.3
v 5.2 2.2 -1.4
v 5.2 2.2 -1.5
v 5.2 2.2 -1.7
v 5.2 2.2 -1.8
v 5.2 2.2 -1.9
v 5.2 2.2 -2
v 5.2 2.2 -2.1
v 5.2 2.2 -2.2
v 5.2 2.2 -2.5
v 5.2 2.2 -2.6
v 5.2 2.2 -2.7
v 5.2 2.2 -2.8
v 5.2 2.2 -2.9
v 5.2 2.2 -3
v 5.2 2.2 -3.2
v 5.2 2.2 -3.3
v 5.2 2.2 -3.4
v 5.2 2.2 -3.5
v 5.2 2.2 -3.6
v 5.2 2.2 -3.7
v 5.2 2.3 -1.2
v 5.2 2.3 -1.3
v 5.2 2.3 -1.9
v 5.2 2.3 -2
v 5.2 2.3 -2.7
v 5.2 2.3 -2.8
v 5.2 2.3 -3.4
v 5.2 2.3 -3.5
v 5.2 2.4 -1
v 5.2 2.4 -1.1
v 5.2 2.4 -1.4
v 5.2 2.4 -1.5
v 5.2 2.4 -1.7
v 5.2 2.4 -1.8
v 5.2 2.4 -2.1
v 5.2 2.4 -2.2
v 5.2 2.4 -2.5
v 5.2 2.4 -2.6
v 5.2 2.4 -2.9
v 5.2 2.4 -3
v 5.2 2.4 -3.2
v 5.2 2.4 -3.3
v 5.2 2.4 -3.6
v 5.2 2.4 -3.7
v 5.2 2.5 -1
v 5.2 2.5 -1.1
v 5.2 2.5 -1.4
v 5.2 2.5 -1.5
v 5.2 2.5 -1.7
v 5.2 2.5 -1.8
v 5.2 2.5 -2.1
v 5.2 2.5 -2.2
v 5.2 2.5 -2.5
v 5.2 2.5 -2.6
v 5.2 2.5 -2.9
v 5.2 2.5 -3
v 5.2 2.5 -3.2
v 5.2 2.5 -3.3
v 5.2 2.5 -3.6
v 5.2 2.5 -3.7
v 5.3 2.4 -1.1
v 5.3 2.4 -1.4
v 5.3 2.4 -1.8
v 5.3 2.4 -2.1
v 5.3 2.4 -2.6
v 5.3 2.4 -2.9
v 5.3 2.4 -3.3
v 5.3 2.4 -3.6
v 5.3 2.5 -1.1
v 5.3 2.5 -1.4
v 5.3 2.5 -1.8
v 5.3 2.5 -2.1
v 5.3 2.5 -2.6
v 5.3 2.5 -2.9
v 5.3 2.5 -3.3
v 5.3 2.5 -3.6
v 5 2 -1
v 5 2.2 -1
v 5 2.4 -1
v 5 2.5 -1
v 5.2 2 -1
v 5.2 2.2 -1
v 5.2 2.4 -1
v 5.2 2.5 -1
v 4.9 2.4 -1.1
v 4.9 2.5 -1.1
v 5 2.2 -1.1
v 5 2.4 -1.1
v 5 2.5 -1.1
v 5.2 2.2 -1.1
v 5.2 2.4 -1.1
v 5.2 2.5 -1.1
v 5.3 2.4 -1.1
v 5.3 2.5 -1.1
v 5 2.2 -1.3
v 5 2.3 -1.3
v 5.2 2.2 -1.3
v 5.2 2.3 -1.3
v 5 2 -1.4
v 5 2.2 -1.4
v 5.2 2 -1.4
v 5.2 2.2 -1.4
v 5 2 -1.7
v 5 2.2 -1.7
v 5 2.4 -1.7
v 5 2.5 -1.7
v 5.2 2 -1.7
v 5.2 2.2 -1.7
v 5.2 2.4 -1.7
v 5.2 2.5 -1.7
v 4.9 2.4 -1.8
v 4.9 2.5 -1.8
v 5 2.2 -1.8
v 5 2.4 -1.8
v 5 2.5 -1.8
v 5.2 2.2 -1.8
v 5.2 2.4 -1.8
v 5.2 2.5 -1.8
v 5.3 2.4 -1.8
v 5.3 2.5 -1.8
v 5 2.2 -2
v 5 2.3 -2
v 5.2 2.2 -2
v 5.2 2.3 -2
v 5 2 -2.1
v 5 2.2 -2.1
v 5.2 2 -2.1
v 5.2 2.2 -2.1
v 5 2 -2.5
v 5 2.2 -2.5
v 5 2.4 -2.5
v 5 2.5 -2.5
v 5.2 2 -2.5
v 5.2 2.2 -2.5
v 5.2 2.4 -2.5
v 5.2 2.5 -2.5
v 4.9 2.4 -2.6
v 4.9 2.5 -2.6
v 5 2.2 -2.6
v 5 2.4 -2.6
v 5 2.5 -2.6
v 5.2 2.2 -2.6
v 5.2 2.4 -2.6
v 5.2 2.5 -2.6
v 5.3 2.4 -2.6
v 5.3 2.5 -2.6
v 5 2.2 -2.8
v 5 2.3 -2.8
v 5.2 2.2 -2.8
v 5.2 2.3 -2.8
v 5 2 -2.9
v 5 2.2 -2.9
v 5.2 2 -2.9
v 5.2 2.2 -2.9
v 5 2 -3.2
v 5 2.2 -3.2
v 5 2.4 -3.2
v 5 2.5 -3.2
v 5.2 2 -3.2
v 5.2 2.2 -3.2
v 5.2 2.4 -3.2
v 5.2 2.5 -3.2
v 4.9 2.4 -3.3
v 4.9 2.5 -3.3
v 5 2.2 -3.3
v 5 2.4 -3.3
v 5 2.5 -3.3
v 5.2 2.2 -3.3
v 5.2 2.4 -3.3
v 5.2 2.5 -3.3
v 5.3 2.4 -3.3
v 5.3 2.5 -3.3
v 5 2.2 -3.5
v 5 2.3 -3.5
v 5.2 2.2 -3.5
v 5.2 2.3 -3.5
v 5 2 -3.6
v 5 2.2 -3.6
v 5.2 2 -3.6
v 5.2 2.2 -3.6
v 5 2 -1.1
v 5 2.2 -1.1
v 5.2 2 -1.1
v 5.2 2.2 -1.1
v 5 2.2 -1.2
v 5 2.3 -1.2
v 5.2 2.2 -1.2
v 5.2 2.3 -1.2
v 4.9 2.4 -1.4
v 4.9 2.5 -1.4
v 5 2.2 -1.4
v 5 2.4 -1.4
v 5 2.5 -1.4
v 5.2 2.2 -1.4
v 5.2 2.4 -1.4
v 5.2 2.5 -1.4
v 5.3 2.4 -1.4
v 5.3 2.5 -1.4
v 5 2 -1.5
v 5 2.2 -1.5
v 5 2.4 -1.5
v 5 2.5 -1.5
v 5.2 2 -1.5
v 5.2 2.2 -1.5
v 5.2 2.4 -1.5
v 5.2 2.5 -1.5
v 5 2 -1.8
v 5 2.2 -1.8
v 5.2 2 -1.8
v 5.2 2.2 -1.8
v 5 2.2 -1.9
v 5 2.3 -1.9
v 5.2 2.2 -1.9
v 5.2 2.3 -1.9
v 4.9 2.4 -2.1
v 4.9 2.5 -2.1
v 5 2.2 -2.1
v 5 2.4 -2.1
v 5 2.5 -2.1
v 5.2 2.2 -2.1
v 5.2 2.4 -2.1
v 5.2 2.5 -2.1
v 5.3 2.4 -2.1
v 5.3 2.5 -2.1
v 5 2 -2.2
v 5 2.2 -2.2
v 5 2.4 -2.2
v 5 2.5 -2.2
v 5.2 2 -2.2
v 5.2 2.2 -2.2
v 5.2 2.4 -2.2
v 5.2 2.5 -2.2
v 5 2 -2.6
v 5 2.2 -2.6
v 5.2 2 -2.6
v 5.2 2.2 -2.6
v 5 2.2 -2.7
v 5 2.3 -2.7
v 5.2 2.2 -2.7
v 5.2 2.3 -2.7
v 4.9 2.4 -2.9
v 4.9 2.5 -2.9
v 5 2.2 -2.9
v 5 2.4 -2.9
v 5 2.5 -2.9
v 5.2 2.2 -2.9
v 5.2 2.4 -2.9
v 5.2 2.5 -2.9
v 5.3 2.4 -2.9
v 5.3 2.5 -2.9
v 5 2 -3
v 5 2.2 -3
v 5 2.4 -3
v 5 2.5 -3
v 5.2 2 -3
v 5.2 2.2 -3
v 5.2 2.4 -3
v 5.2 2.5 -3
v 5 2 -3.3
v 5 2.2 -3.3
v 5.2 2 -3.3
v 5.2 2.2 -3.3
v 5 2.2 -3.4
v 5 2.3 -3.4
v 5.2 2.2 -3.4
v 5.2 2.3 -3.4
v 4.9 2.4 -3.6
v 4.9 2.5 -3.6
v 5 2.2 -3.6
v 5 2.4 -3.6
v 5 2.5 -3.6
v 5.2 2.2 -3.6
v 5.2 2.4 -3.6
v 5.2 2.5 -3.6
v 5.3 2.4 -3.6
v 5.3 2.5 -3.6
v 5 2 -3.7
v 5 2.2 -3.7
v 5 2.4 -3.7
v 5 2.5 -3.7
v 5.2 2 -3.7
v 5.2 2.2 -3.7
v 5.2 2.4 -3.7
v 5.2 2.5 -3.7
v 5 2 -1
v 5.2 2 -1
v 5 2 -1.1
v 5.2 2 -1.1
v 5 2 -1.4
v 5.2 2 -1.4
v 5 2 -1.5
v 5.2 2 -1.5
v 5 2 -1.7
v 5.2 2 -1.7
v 5 2 -1.8
v 5.2 2 -1.8
v 5 2 -2.1
v 5.2 2 -2.1
v 5 2 -2.2
v 5.2 2 -2.2
v 5 2 -2.5
v 5.2 2 -2.5
v 5 2 -2.6
v 5.2 2 -2.6
v 5 2 -2.9
v 5.2 2 -2.9
v 5 2 -3
v 5.2 2 -3
v 5 2 -3.2
v 5.2 2 -3.2
v 5 2 -3.3
v 5.2 2 -3.3
v 5 2 -3.6
v 5.2 2 -3.6
v 5 2 -3.7
v 5.2 2 -3.7
v 5 2.2 -1.1
v 5.2 2.2 -1.1
v 5 2.2 -1.2
v 5.2 2.2 -1.2
v 5 2.2 -1.3
v 5.2 2.2 -1.3
v 5 2.2 -1.4
v 5.2 2.2 -1.4
v 5 2.2 -1.8
v 5.2 2.2 -1.8
v 5 2.2 -1.9
v 5.2 2.2 -1.9
v 5 2.2 -2
v 5.2 2.2 -2
v 5 2.2 -2.1
v 5.2 2.2 -2.1
v 5 2.2 -2.6
v 5.2 2.2 -2.6
v 5 2.2 -2.7
v 5.2 2.2 -2.7
v 5 2.2 -2.8
v 5.2 2.2 -2.8
v 5 2.2 -2.9
v 5.2 2.2 -2.9
v 5 2.2 -3.3
v 5.2 2.2 -3.3
v 5 2.2 -3.4
v 5.2 2.2 -3.4
v 5 2.2 -3.5
v 5.2 2.2 -3.5
v 5 2.2 -3.6
v 5.2 2.2 -3.6
v 5 2.3 -1.2
v 5.2 2.3 -1.2
v 5 2.3 -1.3
v 5.2 2.3 -1.3
v 5 2.3 -1.9
v 5.2 2.3 -1.9
v 5 2.3 -2
v 5.2 2.3 -2
v 5 2.3 -2.7
v 5.2 2.3 -2.7
v 5 2.3 -2.8
v 5.2 2.3 -2.8
v 5 2.3 -3.4
v 5.2 2.3 -3.4
v 5 2.3 -3.5
v 5.2 2.3 -3.5
v 5 2.4 -1
v 5.2 2.4 -1
v 4.9 2.4 -1.1
v 5 2.4 -1.1
v 5.2 2.4 -1.1
v 5.3 2.4 -1.1
v 4.9 2.4 -1.4
v 5 2.4 -1.4
v 5.2 2.4 -1.4
v 5.3 2.4 -1.4
v 5 2.4 -1.5
v 5.2 2.4 -1.5
v 5 2.4 -1.7
v 5.2 2.4 -1.7
v 4.9 2.4 -1.8
v 5 2.4 -1.8
v 5.2 2.4 -1.8
v 5.3 2.4 -1.8
v 4.9 2.4 -2.1
v 5 2.4 -2.1
v 5.2 2.4 -2.1
v 5.3 2.4 -2.1
v 5 2.4 -2.2
v 5.2 2.4 -2.2
v 5 2.4 -2.5
v 5.2 2.4 -2.5
v 4.9 2.4 -2.6
v 5 2.4 -2.6
v 5.2 2.4 -2.6
v 5.3 2.4 -2.6
v 4.9 2.4 -2.9
v 5 2.4 -2.9
v 5.2 2.4 -2.9
v 5.3 2.4 -2.9
v 5 2.4 -3
v 5.2 2.4 -3
v 5 2.4 -3.2
v 5.2 2.4 -3.2
v 4.9 2.4 -3.3
v 5 2.4 -3.3
v 5.2 2.4 -3.3
v 5.3 2.4 -3.3
v 4.9 2.4 -3.6
v 5 2.4 -3.6
v 5.2 2.4 -3.6
v 5.3 2.4 -3.6
v 5 2.4 -3.7
v 5.2 2.4 -3.7
v 5 2.2 -1
v 5.2 2.2 -1
v 5 2.2 -1.1
v 5.2 2.2 -1.1
v 5 2.2 -1.4
v 5.2 2.2 -1.4
v 5 2.2 -1.5
v 5.2 2.2 -1.5
v 5 2.2 -1.7
v 5.2 2.2 -1.7
v 5 2.2 -1.8
v 5.2 2.2 -1.8
v 5 2.2 -2.1
v 5.2 2.2 -2.1
v 5 2.2 -2.2
v 5.2 2.2 -2.2
v 5 2.2 -2.5
v 5.2 2.2 -2.5
v 5 2.2 -2.6
v 5.2 2.2 -2.6
v 5 2.2 -2.9
v 5.2 2.2 -2.9
v 5 2.2 -3
v 5.2 2.2 -3
v 5 2.2 -3.2
v 5.2 2.2 -3.2
v 5 2.2 -3.3
v 5.2 2.2 -3.3
v 5 2.2 -3.6
v 5.2 2.2 -3.6
v 5 2.2 -3.7
v 5.2 2.2 -3.7
v 5 2.5 -1
v 5.2 2.5 -1
v 4.9 2.5 -1.1
v 5 2.5 -1.1
v 5.2 2.5 -1.1
v 5.3 2.5 -1.1
v 4.9 2.5 -1.4
v 5 2.5 -1.4
v 5.2 2.5 -1.4
v 5.3 2.5 -1.4
v 5 2.5 -1.5
v 5.2 2.5 -1.5
v 5 2.5 -1.7
v 5.2 2.5 -1.7
v 4.9 2.5 -1.8
v 5 2.5 -1.8
v 5.2 2.5 -1.8
v 5.3 2.5 -1.8
v 4.9 2.5 -2.1
v 5 2.5 -2.1
v 5.2 2.5 -2.1
v 5.3 2.5 -2.1
v 5 2.5 -2.2
v 5.2 2.5 -2.2
v 5 2.5 -2.5
v 5.2 2.5 -2.5
v 4.9 2.5 -2.6
v 5 2.5 -2.6
v 5.2 2.5 -2.6
v 5.3 2.5 -2.6
v 4.9 2.5 -2.9
v 5 2.5 -2.9
v 5.2 2.5 -2.9
v 5.3 2.5 -2.9
v 5 2.5 -3
v 5.2 2.5 -3
v 5 2.5 -3.2
v 5.2 2.5 -3.2
v 4.9 2.5 -3.3
v 5 2.5 -3.3
v 5.2 2.5 -3.3
v 5.3 2.5 -3.3
v 4.9 2.5 -3.6
v 5 2.5 -3.6
v 5.2 2.5 -3.6
v 5.3 2.5 -3.6
v 5 2.5 -3.7
v 5.2 2.5 -3.7

# faces
f 9/2/1 2/2/1 1/2/1
f 10/2/1 2/2/1 9/2/1
f 11/2/1 4/2/1 3/2/1
f 12/2/1 4/2/1 11/2/1
f 13/2/1 6/2/1 5/2/1
f 14/2/1 6/2/1 13/2/1
f 15/2/1 8/2/1 7/2/1
f 16/2/1 8/2/1 15/2/1
f 33/1/1 18/1/1 17/1/1
f 34/1/1 18/1/1 33/1/1
f 37/1/1 20/1/1 19/1/1
f 38/1/1 20/1/1 37/1/1
f 39/1/1 22/1/1 21/1/1
f 40/1/1 22/1/1 39/1/1
f 43/1/1 24/1/1 23/1/1
f 44/1/1 24/1/1 43/1/1
f 45/1/1 26/1/1 25/1/1
f 46/1/1 26/1/1 45/1/1
f 49/1/1 28/1/1 27/1/1
f 50/1/1 28/1/1 49/1/1
f 51/1/1 30/1/1 29/1/1
f 52/1/1 30/1/1 51/1/1
f 55/1/1 32/1/1 31/1/1
f 56/1/1 32/1/1 55/1/1
f 57/1/1 35/1/1 34/1/1
f 58/1/1 37/1/1 36/1/1
f 59/1/1 41/1/1 40/1/1
f 60/1/1 43/1/1 42/1/1
f 61/1/1 47/1/1 46/1/1
f 62/1/1 49/1/1 48/1/1
f 63/1/1 53/1/1 52/1/1
f 64/1/1 55/1/1 54/1/1
f 66/1/1 58/1/1 57/1/1
f 66/1/1 57/1/1 34/1/1
f 67/1/1 37/1/1 58/1/1
f 67/1/1 58/1/1 66/1/1
f 70/1/1 60/1/1 59/1/1
f 70/1/1 59/1/1 40/1/1
f 71/1/1 43/1/1 60/1/1
f 71/1/1 60/1/1 70/1/1
f 74/1/1 62/1/1 61/1/1
f 74/1/1 61/1/1 46/1/1
f 75/1/1 49/1/1 62/1/1
f 75/1/1 62/1/1 74/1/1
f 78/1/1 63/1/1 52/1/1
f 78/1/1 64/1/1 63/1/1
f 79/1/1 55/1/1 64/1/1
f 79/1/1 64/1/1 78/1/1
f 81/2/1 66/2/1 65/2/1
f 82/2/1 66/2/1 81/2/1
f 83/2/1 68/2/1 67/2/1
f 84/2/1 68/2/1 83/2/1
f 85/2/1 70/2/1 69/2/1
f 86/2/1 70/2/1 85/2/1
f 87/2/1 72/2/1 71/2/1
f 88/2/1 72/2/1 87/2/1
f 89/2/1 74/2/1 73/2/1
f 90/2/1 74/2/1 89/2/1
f 91/2/1 76/2/1 75/2/1
f 92/2/1 76/2/1 91/2/1
f 93/2/1 78/2/1 77/2/1
f 94/2/1 78/2/1 93/2/1
f 95/2/1 80/2/1 79/2/1
f 96/2/1 80/2/1 95/2/1
f 97/1/2 98/1/2 113/1/2
f 113/1/2 98/1/2 114/1/2
f 99/1/2 100/1/2 117/1/2
f 117/1/2 100/1/2 118/1/2
f 101/1/2 102/1/2 119/1/2
f 119/1/2 102/1/2 120/1/2
f 103/1/2 104/1/2 123/1/2
f 123/1/2 104/1/2 124/1/2
f 105/1/2 106/1/2 125/1/2
f 125/1/2 106/1/2 126/1/2
f 107/1/2 108/1/2 129/1/2
f 129/1/2 108/1/2 130/1/2
f 109/1/2 110/1/2 131/1/2
f 131/1/2 110/1/2 132/1/2
f 111/1/2 112/1/2 135/1/2
f 135/1/2 112/1/2 136/1/2
f 114/1/2 115/1/2 137/1/2
f 116/1/2 117/1/2 138/1/2
f 120/1/2 121/1/2 139/1/2
f 122/1/2 123/1/2 140/1/2
f 126/1/2 127/1/2 141/1/2
f 128/1/2 129/1/2 142/1/2
f 132/1/2 133/1/2 143/1/2
f 134/1/2 135/1/2 144/1/2
f 137/1/2 138/1/2 146/1/2
f 114/1/2 137/1/2 146/1/2
f 138/1/2 117/1/2 147/1/2
f 146/1/2 138/1/2 147/1/2
f 139/1/2 140/1/2 150/1/2
f 120/1/2 139/1/2 150/1/2
f 140/1/2 123/1/2 151/1/2
f 150/1/2 140/1/2 151/1/2
f 141/1/2 142/1/2 154/1/2
f 126/1/2 141/1/2 154/1/2
f 142/1/2 129/1/2 155/1/2
f 154/1/2 142/1/2 155/1/2
f 132/1/2 143/1/2 158/1/2
f 143/1/2 144/1/2 158/1/2
f 144/1/2 135/1/2 159/1/2
f 158/1/2 144/1/2 159/1/2
f 145/2/2 146/2/2 161/2/2
f 161/2/2 146/2/2 162/2/2
f 147/2/2 148/2/2 163/2/2
f 163/2/2 148/2/2 164/2/2
f 149/2/2 150/2/2 165/2/2
f 165/2/2 150/2/2 166/2/2
f 151/2/2 152/2/2 167/2/2
f 167/2/2 152/2/2 168/2/2
f 153/2/2 154/2/2 169/2/2
f 169/2/2 154/2/2 170/2/2
f 155/2/2 156/2/2 171/2/2
f 171/2/2 156/2/2 172/2/2
f 157/2/2 158/2/2 173/2/2
f 173/2/2 158/2/2 174/2/2
f 159/2/2 160/2/2 175/2/2
f 175/2/2 160/2/2 176/2/2
f 177/2/2 178/2/2 185/2/2
f 185/2/2 178/2/2 186/2/2
f 179/2/2 180/2/2 187/2/2
f 187/2/2 180/2/2 188/2/2
f 181/2/2 182/2/2 189/2/2
f 189/2/2 182/2/2 190/2/2
f 183/2/2 184/2/2 191/2/2
f 191/2/2 184/2/2 192/2/2
f 197/1/3 194/1/3 193/1/3
f 198/1/3 194/1/3 197/1/3
f 199/2/3 196/2/3 195/2/3
f 200/2/3 196/2/3 199/2/3
f 204/2/3 202/2/3 201/2/3
f 205/2/3 202/2/3 204/2/3
f 206/1/3 204/1/3 203/1/3
f 207/1/3 204/1/3 206/1/3
f 209/2/3 208/2/3 207/2/3
f 210/2/3 208/2/3 209/2/3
f 213/1/3 212/1/3 211/1/3
f 214/1/3 212/1/3 213/1/3
f 217/1/3 216/1/3 215/1/3
f 218/1/3 216/1/3 217/1/3
f 223/1/3 220/1/3 219/1/3
f 224/1/3 220/1/3 223/1/3
f 225/2/3 222/2/3 221/2/3
f 226/2/3 222/2/3 225/2/3
f 230/2/3 228/2/3 227/2/3
f 231/2/3 228/2/3 230/2/3
f 232/1/3 230/1/3 229/1/3
f 233/1/3 230/1/3 232/1/3
f 235/2/3 234/2/3 233/2/3
f 236/2/3 234/2/3 235/2/3
f 239/1/3 238/1/3 237/1/3
f 240/1/3 238/1/3 239/1/3
f 243/1/3 242/1/3 241/1/3
f 244/1/3 242/1/3 243/1/3
f 249/1/3 246/1/3 245/1/3
f 250/1/3 246/1/3 249/1/3
f 251/2/3 248/2/3 247/2/3
f 252/2/3 248/2/3 251/2/3
f 256/2/3 254/2/3 253/2/3
f 257/2/3 254/2/3 256/2/3
f 258/1/3 256/1/3 255/1/3
f 259/1/3 256/1/3 258/1/3
f 261/2/3 260/2/3 259/2/3
f 262/2/3 260/2/3 261/2/3
f 265/1/3 264/1/3 263/1/3
f 266/1/3 264/1/3 265/1/3
f 269/1/3 268/1/3 267/1/3
f 270/1/3 268/1/3 269/1/3
f 275/1/3 272/1/3 271/1/3
f 276/1/3 272/1/3 275/1/3
f 277/2/3 274/2/3 273/2/3
f 278/2/3 274/2/3 277/2/3
f 282/2/3 280/2/3 279/2/3
f 283/2/3 280/2/3 282/2/3
f 284/1/3 282/1/3 281/1/3
f 285/1/3 282/1/3 284/1/3
f 287/2/3 286/2/3 285/2/3
f 288/2/3 286/2/3 287/2/3
f 291/1/3 290/1/3 289/1/3
f 292/1/3 290/1/3 291/1/3
f 295/1/3 294/1/3 293/1/3
f 296/1/3 294/1/3 295/1/3
f 297/1/4 298/1/4 299/1/4
f 299/1/4 298/1/4 300/1/4
f 301/1/4 302/1/4 303/1/4
f 303/1/4 302/1/4 304/1/4
f 305/2/4 306/2/4 308/2/4
f 308/2/4 306/2/4 309/2/4
f 307/1/4 308/1/4 310/1/4
f 310/1/4 308/1/4 311/1/4
f 311/2/4 312/2/4 313/2/4
f 313/2/4 312/2/4 314/2/4
f 315/1/4 316/1/4 319/1/4
f 319/1/4 316/1/4 320/1/4
f 317/2/4 318/2/4 321/2/4
f 321/2/4 318/2/4 322/2/4
f 323/1/4 324/1/4 325/1/4
f 325/1/4 324/1/4 326/1/4
f 327/1/4 328/1/4 329/1/4
f 329/1/4 328/1/4 330/1/4
f 331/2/4 332/2/4 334/2/4
f 334/2/4 332/2/4 335/2/4
f 333/1/4 334/1/4 336/1/4
f 336/1/4 334/1/4 337/1/4
f 337/2/4 338/2/4 339/2/4
f 339/2/4 338/2/4 340/2/4
f 341/1/4 342/1/4 345/1/4
f 345/1/4 342/1/4 346/1/4
f 343/2/4 344/2/4 347/2/4
f 347/2/4 344/2/4 348/2/4
f 349/1/4 350/1/4 351/1/4
f 351/1/4 350/1/4 352/1/4
f 353/1/4 354/1/4 355/1/4
f 355/1/4 354/1/4 356/1/4
f 357/2/4 358/2/4 360/2/4
f 360/2/4 358/2/4 361/2/4
f 359/1/4 360/1/4 362/1/4
f 362/1/4 360/1/4 363/1/4
f 363/2/4 364/2/4 365/2/4
f 365/2/4 364/2/4 366/2/4
f 367/1/4 368/1/4 371/1/4
f 371/1/4 368/1/4 372/1/4
f 369/2/4 370/2/4 373/2/4
f 373/2/4 370/2/4 374/2/4
f 375/1/4 376/1/4 377/1/4
f 377/1/4 376/1/4 378/1/4
f 379/1/4 380/1/4 381/1/4
f 381/1/4 380/1/4 382/1/4
f 383/2/4 384/2/4 386/2/4
f 386/2/4 384/2/4 387/2/4
f 385/1/4 386/1/4 388/1/4
f 388/1/4 386/1/4 389/1/4
f 389/2/4 390/2/4 391/2/4
f 391/2/4 390/2/4 392/2/4
f 393/1/4 394/1/4 397/1/4
f 397/1/4 394/1/4 398/1/4
f 395/2/4 396/2/4 399/2/4
f 399/2/4 396/2/4 400/2/4
f 403/1/5 402/1/5 401/1/5
f 404/1/5 402/1/5 403/1/5
f 407/1/5 406/1/5 405/1/5
f 408/1/5 406/1/5 407/1/5
f 411/1/5 410/1/5 409/1/5
f 412/1/5 410/1/5 411/1/5
f 415/1/5 414/1/5 413/1/5
f 416/1/5 414/1/5 415/1/5
f 419/1/5 418/1/5 417/1/5
f 420/1/5 418/1/5 419/1/5
f 423/1/5 422/1/5 421/1/5
f 424/1/5 422/1/5 423/1/5
f 427/1/5 426/1/5 425/1/5
f 428/1/5 426/1/5 427/1/5
f 431/1/5 430/1/5 429/1/5
f 432/1/5 430/1/5 431/1/5
f 435/1/5 434/1/5 433/1/5
f 436/1/5 434/1/5 435/1/5
f 439/1/5 438/1/5 437/1/5
f 440/1/5 438/1/5 439/1/5
f 443/1/5 442/1/5 441/1/5
f 444/1/5 442/1/5 443/1/5
f 447/1/5 446/1/5 445/1/5
f 448/1/5 446/1/5 447/1/5
f 451/1/5 450/1/5 449/1/5
f 452/1/5 450/1/5 451/1/5
f 455/1/5 454/1/5 453/1/5
f 456/1/5 454/1/5 455/1/5
f 459/1/5 458/1/5 457/1/5
f 460/1/5 458/1/5 459/1/5
f 463/1/5 462/1/5 461/1/5
f 464/1/5 462/1/5 463/1/5
f 467/1/5 466/1/5 465/1/5
f 468/1/5 466/1/5 467/1/5
f 471/1/5 470/1/5 469/1/5
f 472/1/5 470/1/5 471/1/5
f 475/1/5 474/1/5 473/1/5
f 476/1/5 474/1/5 475/1/5
f 479/1/5 478/1/5 477/1/5
f 480/1/5 478/1/5 479/1/5
f 484/2/5 482/2/5 481/2/5
f 485/2/5 482/2/5 484/2/5
f 487/2/5 484/2/5 483/2/5
f 488/2/5 484/2/5 487/2/5
f 489/2/5 486/2/5 485/2/5
f 490/2/5 486/2/5 489/2/5
f 491/2/5 489/2/5 488/2/5
f 492/2/5 489/2/5 491/2/5
f 496/2/5 494/2/5 493/2/5
f 497/2/5 494/2/5 496/2/5
f 499/2/5 496/2/5 495/2/5
f 500/2/5 496/2/5 499/2/5
f 501/2/5 498/2/5 497/2/5
f 502/2/5 498/2/5 501/2/5
f 503/2/5 501/2/5 500/2/5
f 504/2/5 501/2/5 503/2/5
f 508/2/5 506/2/5 505/2/5
f 509/2/5 506/2/5 508/2/5
f 511/2/5 508/2/5 507/2/5
f 512/2/5 508/2/5 511/2/5
f 513/2/5 510/2/5 509/2/5
f 514/2/5 510/2/5 513/2/5
f 515/2/5 513/2/5 512/2/5
f 516/2/5 513/2/5 515/2/5
f 520/2/5 518/2/5 517/2/5
f 521/2/5 518/2/5 520/2/5
f 523/2/5 520/2/5 519/2/5
f 524/2/5 520/2/5 523/2/5
f 525/2/5 522/2/5 521/2/5
f 526/2/5 522/2/5 525/2/5
f 527/2/5 525/2/5 524/2/5
f 528/2/5 525/2/5 527/2/5
f 529/1/6 530/1/6 531/1/6
f 531/1/6 530/1/6 532/1/6
f 533/1/6 534/1/6 535/1/6
f 535/1/6 534/1/6 536/1/6
f 537/1/6 538/1/6 539/1/6
f 539/1/6 538/1/6 540/1/6
f 541/1/6 542/1/6 543/1/6
f 543/1/6 542/1/6 544/1/6
f 545/1/6 546/1/6 547/1/6
f 547/1/6 546/1/6 548/1/6
f 549/1/6 550/1/6 551/1/6
f 551/1/6 550/1/6 552/1/6
f 553/1/6 554/1/6 555/1/6
f 555/1/6 554/1/6 556/1/6
f 557/1/6 558/1/6 559/1/6
f 559/1/6 558/1/6 560/1/6
f 561/2/6 562/2/6 564/2/6
f 564/2/6 562/2/6 565/2/6
f 563/2/6 564/2/6 567/2/6
f 565/2/6 566/2/6 567/2/6
f 564/2/6 565/2/6 567/2/6
f 567/2/6 566/2/6 568/2/6
f 568/2/6 566/2/6 569/2/6
f 569/2/6 566/2/6 570/2/6
f 568/2/6 569/2/6 571/2/6
f 571/2/6 569/2/6 572/2/6
f 573/2/6 574/2/6 576/2/6
f 576/2/6 574/2/6 577/2/6
f 576/2/6 577/2/6 579/2/6
f 577/2/6 578/2/6 579/2/6
f 575/2/6 576/2/6 579/2/6
f 579/2/6 578/2/6 580/2/6
f 580/2/6 578/2/6 581/2/6
f 581/2/6 578/2/6 582/2/6
f 580/2/6 581/2/6 583/2/6
f 583/2/6 581/2/6 584/2/6
f 585/2/6 586/2/6 588/2/6
f 588/2/6 586/2/6 589/2/6
f 588/2/6 589/2/6 591/2/6
f 589/2/6 590/2/6 591/2/6
f 587/2/6 588/2/6 591/2/6
f 591/2/6 590/2/6 592/2/6
f 592/2/6 590/2/6 593/2/6
f 593/2/6 590/2/6 594/2/6
f 592/2/6 593/2/6 595/2/6
f 595/2/6 593/2/6 596/2/6
f 597/2/6 598/2/6 600/2/6
f 600/2/6 598/2/6 601/2/6
f 600/2/6 601/2/6 603/2/6
f 601/2/6 602/2/6 603/2/6
f 599/2/6 600/2/6 603/2/6
f 603/2/6 602/2/6 604/2/6
f 604/2/6 602/2/6 605/2/6
f 605/2/6 602/2/6 606/2/6
f 604/2/6 605/2/6 607/2/6
f 607/2/6 605/2/6 608/2/6
